<?xml version="1.0" encoding="UTF-8" standalone="no"?>
<!-- Created with Inkscape (http://www.inkscape.org/) -->

<svg
   xmlns:dc="http://purl.org/dc/elements/1.1/"
   xmlns:cc="http://creativecommons.org/ns#"
   xmlns:rdf="http://www.w3.org/1999/02/22-rdf-syntax-ns#"
   xmlns:svg="http://www.w3.org/2000/svg"
   xmlns="http://www.w3.org/2000/svg"
   xmlns:sodipodi="http://sodipodi.sourceforge.net/DTD/sodipodi-0.dtd"
   xmlns:inkscape="http://www.inkscape.org/namespaces/inkscape"
   width="349.41174"
   height="263.75473"
   id="svg5808"
   version="1.1"
   inkscape:version="0.47 r22583"
   sodipodi:docname="herardric ship.svg">
  <defs
     id="defs5810">
    <inkscape:perspective
       sodipodi:type="inkscape:persp3d"
       inkscape:vp_x="0 : 526.18109 : 1"
       inkscape:vp_y="0 : 1000 : 0"
       inkscape:vp_z="744.09448 : 526.18109 : 1"
       inkscape:persp3d-origin="372.04724 : 350.78739 : 1"
       id="perspective5816" />
    <inkscape:perspective
       id="perspective5781"
       inkscape:persp3d-origin="0.5 : 0.33333333 : 1"
       inkscape:vp_z="1 : 0.5 : 1"
       inkscape:vp_y="0 : 1000 : 0"
       inkscape:vp_x="0 : 0.5 : 1"
       sodipodi:type="inkscape:persp3d" />
  </defs>
  <sodipodi:namedview
     id="base"
     pagecolor="#ffffff"
     bordercolor="#666666"
     borderopacity="1.0"
     inkscape:pageopacity="0.0"
     inkscape:pageshadow="2"
     inkscape:zoom="0.63507969"
     inkscape:cx="136.91534"
     inkscape:cy="104.53257"
     inkscape:document-units="px"
     inkscape:current-layer="layer1"
     showgrid="false"
     inkscape:window-width="1024"
     inkscape:window-height="574"
     inkscape:window-x="-4"
     inkscape:window-y="-4"
     inkscape:window-maximized="1" />
  <metadata
     id="metadata5813">
    <rdf:RDF>
      <cc:Work
         rdf:about="">
        <dc:format>image/svg+xml</dc:format>
        <dc:type
           rdf:resource="http://purl.org/dc/dcmitype/StillImage" />
        <dc:title></dc:title>
      </cc:Work>
    </rdf:RDF>
  </metadata>
  <g
     inkscape:label="Layer 1"
     inkscape:groupmode="layer"
     id="layer1"
     transform="translate(622.62765,-607.23415)">
    <g
       id="g6439"
       transform="translate(100.65537,215.32315)">
      <path
         id="path1353"
         d="m -532.87623,393.6791 c -1.12354,1.12326 -1.49806,2.24651 -1.27335,3.74417 0.29962,2.17162 0.29962,2.17162 -2.69653,1.57255 -5.69267,-0.97348 -16.32898,-0.44929 -22.92049,1.19814 -8.91351,2.2465 -13.18302,2.09674 -23.51971,-1.04836 -1.19845,-0.37442 -1.12356,0 0.74903,3.44463 2.24712,4.11859 3.29576,4.9423 8.53901,6.81439 l 3.37066,1.19813 -6.06719,1.57255 c -3.29575,0.8986 -6.59151,1.64744 -7.26564,1.64744 -2.47182,0 -1.27336,1.34791 2.24711,2.54604 5.09344,1.72231 10.48649,1.49767 21.49731,-1.12326 7.78998,-1.7972 11.08573,-2.24649 15.95446,-2.02184 3.37066,0.0749 6.3668,0.52418 6.66642,0.82371 0.37451,0.29953 -1.42317,2.39628 -3.82008,4.64277 -3.67028,3.29487 -5.01854,4.0437 -7.19075,4.11859 -1.49806,0 -3.82007,0.22465 -5.09344,0.4493 -2.24711,0.4493 -2.32201,0.59907 -2.32201,4.79253 l 0,4.34325 -17.37762,16.32458 c -9.58766,8.98601 -18.57608,16.92365 -19.92434,17.74737 -1.34827,0.82371 -2.69653,2.02185 -3.07105,2.6958 -0.82394,1.49767 0.14981,4.19347 1.72278,4.79254 0.97374,0.37442 0.37452,1.64743 -2.99614,6.29021 -4.86873,6.7395 -8.61391,13.92831 -11.53514,21.94084 l -2.09731,5.61625 -1.19845,-4.11859 c -1.94749,-6.58974 -3.44557,-16.17481 -3.44557,-22.46502 0,-5.76602 0,-5.76602 3.89499,-11.30739 4.71893,-6.73951 15.80465,-18.27156 21.94674,-22.91433 2.47181,-1.87209 6.66641,-4.41812 9.36295,-5.69114 5.99228,-2.77068 7.49034,-4.0437 7.49034,-6.14043 0,-2.47116 -1.79768,-3.6693 -4.64402,-3.07022 -1.64787,0.29953 -8.31429,-0.74884 -19.69963,-3.07023 -9.43784,-1.87209 -17.30272,-3.51951 -17.37762,-3.51951 0,-0.0749 0.74904,-3.29488 1.79768,-7.18881 1.19847,-4.56789 2.47182,-7.78788 3.67028,-9.0609 2.24711,-2.39627 2.32201,-5.16695 0.0749,-7.26368 -3.74518,-3.51953 -9.36294,-0.44931 -8.539,4.64277 l 0.37452,2.54603 -4.94364,0.52418 c -2.69653,0.29954 -9.13823,1.64744 -14.23167,3.07022 -10.33669,2.84557 -18.42627,3.29488 -23.74442,1.42279 -1.64788,-0.59907 -3.07105,-1.12326 -3.14595,-1.12326 -0.14981,0 -0.22472,0.82373 -0.22472,1.87209 0,3.21999 2.0224,6.06556 5.31816,7.713 l 3.14594,1.57255 -2.09729,0.52418 c -1.12356,0.29953 -4.49422,0.29953 -7.56526,0.0749 -3.07104,-0.22464 -5.54286,-0.22464 -5.54286,0 0,1.57256 3.67027,5.76602 6.06718,6.96416 5.24325,2.6958 16.17917,1.72232 28.31355,-2.54603 6.06718,-2.09675 13.93206,-2.69581 13.40773,-1.04837 -0.29961,0.8986 -10.86102,8.83624 -28.98767,21.79106 -9.13824,6.51487 -10.56141,8.31207 -9.13824,11.45717 0.74905,1.72232 0.52433,2.39626 -1.72278,6.14043 -4.86873,8.23718 -9.43785,22.39015 -9.43785,29.57896 0,3.59439 -0.2247,3.89393 -5.16835,9.13577 -10.112,10.63345 -29.8865,35.41985 -34.156,42.83331 l -1.3483,2.32138 -1.4231,-1.7972 c -2.8464,-3.59439 -8.8387,-1.57255 -8.8387,2.99534 0,3.14511 1.9475,4.94231 5.468,4.94231 1.9475,0 5.8425,1.49766 12.5838,4.9423 l 9.8124,4.86742 -1.8726,2.02185 c -3.5954,3.89395 -4.3444,6.96416 -2.4718,9.58508 0.8988,1.19814 2.0223,1.42279 6.2169,1.42279 4.4943,0 5.9923,0.37442 11.1607,2.92044 5.0934,2.54604 7.04092,4.11859 14.53127,11.90647 23.1452,24.18734 28.83786,29.20453 42.69502,37.74124 8.01468,4.9423 22.62087,12.13111 29.81161,14.75203 23.36991,8.38694 49.13673,9.95949 73.48038,4.493 11.23553,-2.54603 19.47492,-5.46648 30.26103,-10.85809 5.99228,-3.07022 8.91353,-4.11859 9.06333,-3.51952 0.22471,0.52419 0.89885,2.6958 1.57297,4.79254 1.27337,4.11859 5.01854,10.4088 6.59152,11.00786 0.52432,0.14976 12.50889,-1.49767 26.74054,-3.66929 14.2317,-2.17161 26.06644,-3.96882 26.36604,-4.0437 1.42317,-0.0749 3.14603,-8.23718 3.14603,-14.60227 0,-6.51485 -0.1499,-6.96416 -3.29583,-13.10459 -4.04481,-7.78788 -10.18688,-14.22786 -16.10425,-16.92366 l -4.19461,-1.94697 1.79776,-2.32138 c 8.31422,-11.00786 18.12661,-26.80826 21.94673,-35.27009 l 2.17215,-4.86742 3.89502,-0.0749 c 2.09725,0 4.04481,-0.29953 4.26951,-0.67395 0.22469,-0.29954 -0.0749,-3.44464 -0.67419,-6.88927 -0.59919,-3.44464 -1.12348,-6.36509 -1.12348,-6.51486 0,-0.0749 1.34817,-0.14976 2.99614,-0.14976 l 2.99614,0 0,-8.46183 0,-8.53671 12.95832,-24.63665 c 7.04095,-13.55389 13.6324,-25.46035 14.60618,-26.35895 2.32195,-2.32139 2.02236,-5.84091 -0.74908,-7.86276 -1.72277,-1.27302 -2.32206,-1.3479 -4.19461,-0.59906 -2.32195,0.97348 -4.11972,3.89393 -3.44553,5.54137 0.2247,0.59906 -0.37449,2.2465 -1.19847,3.74417 -1.34827,2.32138 -1.94746,2.62092 -3.59532,2.32138 -1.12358,-0.22465 -9.6626,-1.64743 -19.0256,-3.21999 l -16.92813,-2.84556 -8.31432,14.97668 c -4.5691,8.23717 -8.23943,15.05156 -8.16453,15.20133 0.1499,0.0749 8.83871,0.74883 19.32519,1.42279 10.48647,0.67394 19.25018,1.42278 19.39998,1.57255 0.1498,0.0749 -2.39695,4.79254 -5.61778,10.40879 l -5.84247,10.10926 -17.22783,0 c -14.98068,0 -17.22783,0.14977 -18.05171,1.19814 -0.74909,1.04836 -1.12358,-0.0749 -2.54675,-6.51486 -2.32199,-10.8581 -4.5691,-25.16083 -4.5691,-28.905 0,-3.66928 3.29576,-11.23251 9.288,-21.41666 8.91361,-15.12644 21.64713,-29.80359 26.74062,-30.77707 4.34441,-0.82373 7.41544,-3.1451 7.41544,-5.61626 0,-2.54603 -1.19847,-3.74417 -4.19461,-4.11858 -2.02235,-0.22466 -28.46339,-10.63345 -29.66176,-11.68182 -0.74908,-0.59906 2.99614,-13.47901 4.34441,-15.05156 3.96981,-4.49301 -3.67032,-10.93298 -7.93983,-6.66463 -1.64787,1.64744 -1.94748,5.16696 -0.52429,6.66463 0.74898,0.74883 -0.0749,0.82371 -3.96991,0.29953 -7.56526,-0.8986 -14.756,-0.52418 -21.49732,1.19813 -7.49035,1.94697 -13.33283,2.02186 -19.92434,0.14977 -2.84633,-0.74883 -5.01853,-1.04837 -5.01853,-0.67395 0,1.72232 3.22085,6.36509 5.46795,7.86276 1.34826,0.8986 3.74518,1.94697 5.39306,2.2465 l 2.92123,0.67395 -4.49421,1.27302 c -2.39691,0.67395 -5.91738,1.64743 -7.78997,2.09674 l -3.37066,0.8986 2.99614,1.3479 c 4.49421,2.02185 12.35909,1.7972 21.94674,-0.59907 5.46796,-1.3479 10.18688,-1.94697 14.90581,-2.02185 5.91738,-0.0749 8.76371,0.44929 7.64016,1.27302 -10.03707,7.93763 -44.56761,34.07194 -48.46259,36.69287 -5.99228,4.0437 -6.89113,5.24184 -6.89113,8.76136 0,1.94696 0.37452,2.54602 2.17221,3.21998 l 2.17219,0.74884 -2.62162,4.11858 c -1.49807,2.24651 -3.82008,6.66463 -5.24325,9.80974 l -2.62162,5.69112 -1.34826,-2.62091 c -1.27337,-2.62092 -2.54673,-7.56322 -3.29576,-13.17948 -0.37452,-2.62092 0,-3.81905 3.14595,-9.21066 4.4193,-7.71299 11.53514,-17.29807 15.57993,-21.04224 1.72279,-1.57255 3.37066,-3.29487 3.67029,-3.74417 0.59922,-1.04836 -1.64789,-3.74417 -3.14596,-3.74417 -1.12355,0 -27.93903,-18.57108 -27.93903,-19.31992 0,-2.09673 4.0448,-12.87995 5.24325,-14.00319 0.82394,-0.74884 1.49808,-2.32139 1.49808,-3.51953 0,-4.493 -5.76758,-6.81439 -9.06334,-3.51952 z m 15.35523,33.62266 c 5.54286,3.89393 10.11199,7.26369 10.18688,7.48834 0,0.52418 -19.62472,7.56322 -19.99923,7.1888 -0.14982,-0.14977 0.89884,-2.6958 2.322,-5.61625 1.49807,-2.92046 2.69653,-5.76603 2.69653,-6.3651 0,-1.12324 -7.19075,-4.9423 -9.28804,-4.9423 -1.79768,0 -2.0973,-1.27302 -1.12356,-4.49301 l 0.89885,-2.99533 2.0973,1.34791 c 1.12355,0.67394 6.59152,4.49299 12.20927,8.38694 z m 94.07889,2.99533 c 0,0.4493 -30.11126,9.80973 -30.48577,9.51019 -0.14981,-0.14977 4.19464,-15.50087 5.39301,-19.02038 0.2248,-0.59906 4.4193,0.82372 12.65873,4.11858 6.81625,2.7707 12.43403,5.16696 12.43403,5.39161 z m -116.47504,-8.31206 c -0.22472,0.4493 -0.82395,0.82372 -1.27337,0.82372 -0.44942,0 -0.44942,-0.4493 0.14981,-1.12325 1.04865,-1.27302 1.9475,-0.97348 1.12356,0.29953 z m 80.3715,10.33391 c -1.64788,5.31672 -3.29575,9.88461 -3.59537,10.18414 -0.44943,0.52419 -10.78611,3.89394 -27.71431,9.06089 -5.46796,1.64744 -6.1421,1.72233 -4.49421,0.52419 1.04864,-0.82372 9.96216,-7.71299 19.84943,-15.35109 9.88728,-7.56323 18.20157,-13.85344 18.42627,-13.85344 0.29963,-0.0749 -0.82393,4.19348 -2.47181,9.43531 z m -142.16693,-1.57255 c 15.72975,3.21999 16.02936,3.29487 13.10812,4.11859 -1.19846,0.37441 -8.76372,2.47115 -16.70349,4.71766 l -14.53129,4.0437 0.52433,-2.02186 c 1.64787,-6.88927 3.59537,-13.5539 3.96988,-13.5539 0.29962,0 6.3668,1.19815 13.63245,2.69581 z m -22.84558,3.44464 c -0.14981,0.52418 -0.97375,3.36975 -1.87259,6.29021 l -1.49807,5.3916 -5.84247,1.57256 c -3.14596,0.82371 -8.08959,2.24649 -10.93593,3.07021 -2.84634,0.74883 -4.94363,1.27302 -4.79382,1.04836 0.59922,-0.52418 24.86797,-18.27154 25.09269,-18.27154 0.0749,0 0.0749,0.44929 -0.14981,0.8986 z m 70.70895,3.36975 c 0.89884,-0.22465 1.57297,-0.22465 1.57297,-0.0749 0,1.19813 -13.85715,18.72085 -15.20542,19.24504 -0.89884,0.37441 -5.31816,1.94697 -9.73746,3.59439 l -8.16448,2.92046 6.21698,-5.8409 c 3.44557,-3.14511 9.96218,-9.21066 14.45639,-13.47901 5.39305,-5.09208 8.3892,-7.41347 8.76371,-6.81441 0.29961,0.52419 1.19847,0.67396 2.09731,0.44931 z m 6.74131,6.14044 -2.2471,6.73951 -5.69267,1.87208 c -3.14595,1.04837 -5.76757,1.87209 -5.84247,1.72232 -0.14982,-0.0749 2.62161,-3.96882 6.06718,-8.61159 5.01854,-6.66463 6.66641,-8.38694 8.08958,-8.38694 l 1.87259,0 -2.24711,6.66462 z m 16.7784,-2.2465 2.09729,1.3479 -6.4417,2.2465 c -3.52046,1.27302 -6.29189,1.87209 -6.14208,1.42279 0.1498,-0.4493 0.89884,-2.62092 1.57296,-4.71765 l 1.27336,-3.96883 2.77143,1.19814 c 1.49808,0.59907 3.67029,1.72232 4.86874,2.47115 z m 9.88727,45.52911 1.94748,3.96883 -1.87257,6.14043 c -2.24712,7.63811 -3.82009,15.20133 -5.01855,24.48688 -0.74903,5.99067 -1.34826,7.71299 -3.89498,11.90646 -1.57298,2.6958 -3.29576,5.8409 -3.67027,7.03904 -1.34826,3.81905 -2.09731,1.19813 -2.54673,-9.13578 -0.52432,-11.23251 0.44942,-22.61479 2.77143,-33.32311 1.57298,-7.11392 5.31816,-18.72085 7.26564,-22.46503 l 1.12356,-2.2465 0.97375,4.79254 c 0.59923,2.6958 1.87259,6.66462 2.92124,8.83624 z m -97.82404,0.0749 c 0.0749,4.34324 1.9475,12.95484 4.1946,19.61945 1.49807,4.41813 1.72279,5.99068 1.12356,8.53671 -0.37452,1.64744 -1.04865,6.73952 -1.49807,11.15764 -1.42317,14.30273 0.89884,27.9315 7.04093,40.58681 1.87259,3.66928 3.52046,7.56322 3.82008,8.53671 l 0.52433,1.79719 -2.09731,-1.57255 c -6.21699,-4.41812 -12.7336,-13.10459 -16.32897,-21.71619 -2.2471,-5.31672 -2.39691,-6.14044 -0.82393,-6.14044 0.97374,0 1.12355,-1.57255 1.12355,-9.36042 l 0,-9.36043 -2.24711,0 c -1.94749,0 -2.32201,-0.37442 -3.14595,-3.21999 -0.59923,-1.87208 -0.97375,-7.1888 -0.97375,-13.25436 0,-11.08274 1.04866,-15.72552 5.84249,-26.43384 2.54671,-5.69114 3.37065,-5.46649 3.44555,0.82371 z m 160.3685,13.77855 c 0.97374,6.88927 3.89499,21.7162 5.54286,28.0064 0.9737,3.81905 0.9737,4.493 -0.37452,8.38694 -0.82394,2.32138 -1.27335,4.64277 -1.12356,5.09208 0.22472,0.52418 -1.27335,2.6958 -3.22085,4.86741 -3.52046,3.89394 -3.59536,3.96882 -4.49421,2.32139 -3.59536,-6.8144 -4.94362,-24.11246 -2.69652,-35.86916 0.97374,-5.16695 4.79382,-18.94549 5.24324,-18.94549 0.14981,0 0.59923,2.77068 1.12356,6.14043 z m -213.10059,13.85343 1.04865,4.56789 -6.21699,22.76456 -6.29187,22.68967 -2.3969,-0.22465 c -3.146,-0.37442 -25.4673,-10.63344 -25.4673,-11.7567 0,-2.84557 21.3476,-30.32778 33.3321,-42.98307 l 4.49424,-4.71766 0.22471,2.47116 c 0.1498,1.42278 0.74903,4.64277 1.27336,7.1888 z m 23.59462,-0.74883 c 0,0.37442 -0.97375,3.81905 -2.0973,7.71299 l -2.0973,7.11392 -5.09344,0.22465 c -2.84634,0.14977 -5.46796,-0.0749 -5.91738,-0.52418 -1.04865,-1.04837 0.0749,-6.43997 1.94749,-9.21066 1.94749,-2.92045 7.34055,-5.8409 10.78611,-5.8409 1.34826,0 2.47182,0.22464 2.47182,0.52418 z m 16.17916,10.55855 c 1.42317,1.8721 2.54673,3.6693 2.54673,3.96883 0,0.37442 -3.07105,0.67395 -6.81623,0.67395 l -6.81622,0 0.44942,-2.09674 c 0.29961,-1.12325 1.04865,-3.81905 1.64788,-5.99067 l 1.12355,-3.89393 2.62162,2.02184 c 1.49807,1.12326 3.82008,3.51952 5.24325,5.31672 z m -35.05486,4.11859 c 1.34827,3.14511 1.64788,5.39161 1.64788,11.60693 l 0,7.63811 2.47182,0 2.39692,0 0.1498,6.58974 c 0.0749,3.5944 0.82393,9.21066 1.64788,12.43065 1.49807,6.36509 1.19845,9.43531 -1.19846,9.43531 -0.67413,0 -4.64402,-2.02186 -8.83862,-4.49301 -4.1197,-2.47115 -8.53905,-4.79253 -9.81235,-5.24184 l -2.2471,-0.82371 5.61775,-20.51806 c 3.07105,-11.3074 5.84248,-20.59293 6.06718,-20.59293 0.29961,0 1.19847,1.79719 2.0973,3.96881 z m 142.16694,25.46037 c 1.72278,8.68647 4.86872,16.84876 9.73746,25.38547 2.32201,4.04371 4.11969,7.48834 3.96988,7.63811 -0.74903,0.67395 -8.3892,1.87209 -9.06332,1.49767 -1.04866,-0.67395 -5.24326,-9.73485 -8.08959,-17.52272 -3.22085,-8.76136 -6.14209,-20.89248 -5.61776,-23.13897 0.22471,-1.04837 1.87258,-4.79254 3.59536,-8.31206 l 3.07105,-6.36508 0.59924,7.33856 c 0.2996,4.0437 1.04864,10.10926 1.79768,13.47902 z m 56.10275,-2.47116 c 2.92124,1.49767 3.74518,2.24651 3.59537,3.51953 -0.14981,1.34789 0.22471,1.64743 2.2471,1.87208 3.9699,0.37441 3.29576,2.17162 -2.92123,7.56323 -3.22086,2.77068 -6.14209,5.01719 -6.59151,5.01719 -1.72279,0 -9.06334,-8.91114 -11.46025,-13.85344 l -2.47181,-5.24183 2.02239,-0.52419 c 4.34441,-1.04838 11.68495,-0.29954 15.57994,1.64743 z m -10.11198,15.50086 4.3444,4.34325 -1.94749,1.3479 c -2.62162,1.79719 -19.84944,10.25902 -20.22395,9.95949 -0.14981,-0.14977 1.72277,-6.88928 4.04479,-14.97668 l 4.3444,-14.75203 2.54672,4.86742 c 1.42317,2.6958 4.49422,6.81439 6.89113,9.21065 z m -25.46721,4.86743 c -2.1722,6.66463 -4.1946,12.50553 -4.49421,12.87995 -0.97375,0.97348 -1.72278,-4.41812 -1.19845,-8.38694 0.89884,-6.06556 2.69652,-10.4088 5.84247,-14.00321 1.64788,-1.87208 3.14595,-3.29486 3.37066,-3.07021 0.14981,0.14977 -1.42317,5.8409 -3.52047,12.58041 z m -82.54371,-11.23251 c -0.2247,0.52418 -1.79768,5.31672 -3.59536,10.70833 -1.72278,5.31672 -3.44557,10.03437 -3.74518,10.33391 -0.29961,0.37441 -1.87259,0 -3.52047,-0.82372 -2.47181,-1.27302 -3.07104,-2.02185 -3.89498,-5.31673 -0.89884,-3.66928 -0.89884,-3.96881 0.97375,-7.1888 2.39691,-4.04371 5.91737,-6.81439 9.88727,-7.78788 4.04479,-0.97348 4.26949,-0.97348 3.89497,0.0749 z m 12.65871,1.04836 c 1.34826,0.37442 1.87259,1.49768 2.92124,6.58974 0.89884,3.89395 2.77143,8.83625 5.31814,13.85344 l 3.89499,7.71299 -3.89499,-0.4493 c -2.1722,-0.22465 -7.34054,-1.19813 -11.46024,-2.02186 l -7.64016,-1.57255 1.79768,-5.76602 c 0.97375,-3.1451 2.69654,-8.61159 3.82009,-12.28088 1.94749,-6.51485 2.2471,-6.88927 5.24325,-6.06556 z m 16.55368,6.29021 7.78997,3.74417 -3.44556,3.89394 c -1.9475,2.17162 -4.04479,5.46649 -4.71893,7.33857 -0.67414,1.87208 -1.42317,3.6693 -1.72278,3.96883 -1.34826,1.49766 -9.73746,-17.97202 -9.73746,-22.53991 0,-1.57255 2.77143,-0.67395 11.83476,3.5944 z m 15.72974,8.31206 c 8.2394,5.01719 19.25021,13.32925 17.75214,13.47902 -0.37451,0 -4.64402,0.29953 -9.36294,0.67395 -4.71893,0.29953 -12.05947,0.4493 -16.25407,0.22465 l -7.64016,-0.44931 0.44942,-2.32138 c 0.67413,-3.59441 2.99614,-7.78787 6.3668,-11.38228 1.64789,-1.7972 3.14595,-3.29486 3.29576,-3.29486 0.22472,0 2.62162,1.34789 5.39305,3.07021 z"
         style="fill:#ffff00;fill-opacity:1;fill-rule:evenodd;stroke:#000000;stroke-width:0.43398929;stroke-miterlimit:4;stroke-opacity:1;stroke-dasharray:none;display:inline"
         sodipodi:nodetypes="cccccccccsccccccccccsccccccscccscccccccccccsscccssccccccsccccssccccscccccccccscsccccccccsscccccccccccccccsccccccsccscccsccccssccccccccccsccccccccccsscscccscssccccccccccsccccccccccccccscccccccsccsccccccccccccccccccscccccccccccccccccccccccccsccccscccccccccsccccccsccccccccscsccsccccccccccccccsccccscccccccccccccccsccccccccccccccccsccccccccccccccccccccccscsccccccccsc" />
      <path
         d="m -444.55996,534.76424 0,3.36975 3.37062,0 3.37063,0 0,-3.36975 0,-3.36975 -3.37063,0 -3.37062,0 0,3.36975 z"
         id="path8"
         style="fill:#000000;stroke:#000000;stroke-width:0.43398929;stroke-miterlimit:4;stroke-opacity:1;stroke-dasharray:none;display:inline" />
      <path
         d="m -431.07736,534.76424 0,3.36975 3.37063,0 3.37073,0 0,-3.36975 0,-3.36975 -3.37073,0 -3.37063,0 0,3.36975 z"
         id="path6262"
         style="fill:#000000;stroke:#000000;stroke-width:0.43398929;stroke-miterlimit:4;stroke-opacity:1;stroke-dasharray:none;display:inline" />
      <path
         d="m -417.59475,534.76424 0,3.36975 3.37073,0 3.37063,0 0,-3.36975 0,-3.36975 -3.37063,0 -3.37073,0 0,3.36975 z"
         id="path12"
         style="fill:#000000;stroke:#000000;stroke-width:0.43398929;stroke-miterlimit:4;stroke-opacity:1;stroke-dasharray:none;display:inline" />
      <path
         d="m -446.80712,548.99209 0,3.36975 3.37073,0 3.37063,0 0,-3.36975 0,-3.36975 -3.37063,0 -3.37073,0 0,3.36975 z"
         id="path20"
         style="fill:#000000;stroke:#000000;stroke-width:0.43398929;stroke-miterlimit:4;stroke-opacity:1;stroke-dasharray:none;display:inline" />
      <path
         d="m -425.08508,548.99209 0,3.36975 3.37073,0 3.37062,0 0,-3.36975 0,-3.36975 -3.37062,0 -3.37073,0 0,3.36975 z"
         id="path22"
         style="fill:#000000;stroke:#000000;stroke-width:0.43398929;stroke-miterlimit:4;stroke-opacity:1;stroke-dasharray:none;display:inline" />
      <path
         d="m -449.80325,565.46644 c 0,2.62092 0,2.62092 3.37073,2.62092 3.37062,0 3.37062,0 3.37062,-2.62092 0,-2.62093 0,-2.62093 -3.37062,-2.62093 -3.37073,0 -3.37073,0 -3.37073,2.62093 z"
         id="path24"
         style="fill:#000000;stroke:#000000;stroke-width:0.43398929;stroke-miterlimit:4;stroke-opacity:1;stroke-dasharray:none;display:inline" />
      <path
         d="m -434.07349,565.46644 c 0,2.62092 0,2.62092 3.37063,2.62092 3.37073,0 3.37073,0 3.37073,-2.62092 0,-2.62093 0,-2.62093 -3.37073,-2.62093 -3.37063,0 -3.37063,0 -3.37063,2.62093 z"
         id="path26"
         style="fill:#000000;stroke:#000000;stroke-width:0.43398929;stroke-miterlimit:4;stroke-opacity:1;stroke-dasharray:none;display:inline" />
      <path
         d="m -607.10069,597.6663 0,4.86743 3.37067,0 3.37066,0 0,-4.86743 0,-4.86742 -3.37066,0 -3.37067,0 0,4.86742 z"
         id="path28"
         style="fill:#000000;stroke:#000000;stroke-width:0.43398929;stroke-miterlimit:4;stroke-opacity:1;stroke-dasharray:none;display:inline" />
      <path
         d="m -493.2473,600.66164 0,4.86742 3.37067,0 3.37066,0 0,-4.86742 0,-4.86743 -3.37066,0 -3.37067,0 0,4.86743 z"
         id="path30"
         style="fill:#000000;stroke:#000000;stroke-width:0.43398929;stroke-miterlimit:4;stroke-opacity:1;stroke-dasharray:none;display:inline" />
      <path
         d="m -549.42495,607.40115 0,4.86742 3.37066,0 3.37066,0 0,-4.86742 0,-4.86742 -3.37066,0 -3.37066,0 0,4.86742 z"
         id="path32"
         style="fill:#000000;stroke:#000000;stroke-width:0.43398929;stroke-miterlimit:4;stroke-opacity:1;stroke-dasharray:none;display:inline" />
      <path
         d="m -658.03509,538.50841 0,3.36975 3.37066,0 3.37066,0 0,-3.36975 0,-3.36975 -3.37066,0 -3.37066,0 0,3.36975 z"
         id="path14"
         style="fill:#000000;stroke:#000000;stroke-width:0.43398929;stroke-miterlimit:4;stroke-opacity:1;stroke-dasharray:none;display:inline" />
      <path
         d="m -644.55246,538.50841 0,3.36975 3.37066,0 3.37067,0 0,-3.36975 0,-3.36975 -3.37067,0 -3.37066,0 0,3.36975 z"
         id="path16"
         style="fill:#000000;stroke:#000000;stroke-width:0.43398929;stroke-miterlimit:4;stroke-opacity:1;stroke-dasharray:none;display:inline" />
      <path
         d="m -631.06982,538.50841 0,3.36975 3.37067,0 3.37066,0 0,-3.36975 0,-3.36975 -3.37066,0 -3.37067,0 0,3.36975 z"
         id="path18"
         style="fill:#000000;stroke:#000000;stroke-width:0.43398929;stroke-miterlimit:4;stroke-opacity:1;stroke-dasharray:none;display:inline" />
      <path
         id="path5291-6"
         d="m -592.37173,445.97823 c -12.35908,10.18414 -23.51971,24.18734 -30.03632,37.66635 -5.16834,10.70833 -7.26564,19.17016 -7.26564,29.8036 0,6.66462 -0.14981,7.86276 -0.97375,7.18881 -0.59922,-0.44931 -1.04865,-2.39628 -1.12355,-4.34324 0,-1.87208 -0.29961,-5.16696 -0.67413,-7.1888 -0.52432,-3.59441 -0.52432,-3.59441 -0.67414,2.02184 0,3.21999 -0.2247,5.8409 -0.37451,5.8409 -2.32201,0 -2.69653,-1.12324 -2.77143,-8.16229 -0.0749,-6.06555 -0.22472,-6.66461 -0.74904,-3.81904 -0.29961,1.87208 -0.59923,4.79253 -0.59923,6.51485 -0.0749,2.39627 -0.29962,3.07022 -1.12355,2.77068 -0.67413,-0.29953 -1.19845,-2.6958 -1.64788,-8.01252 l -0.67413,-7.63811 -0.22471,6.88928 c -0.0749,3.81905 -0.29962,6.96416 -0.52433,6.96416 -2.02239,0 -2.62162,-1.27302 -2.69652,-5.54138 -0.0749,-6.51486 -1.27336,-9.73484 -1.34827,-3.81905 -0.1498,5.61626 -0.67413,7.86276 -2.02239,7.86276 -0.74904,0 -1.04865,-0.97349 -1.12356,-3.21999 0,-1.72232 -0.29961,-4.49301 -0.59922,-6.14044 -0.59923,-2.54603 -0.67413,-2.09674 -0.74904,3.1451 -0.0749,4.79254 -0.29961,6.21533 -1.12355,6.21533 -1.27337,0 -1.87259,-2.2465 -2.0224,-7.48835 -0.14981,-4.0437 -0.14981,-4.0437 -0.74903,1.49768 -0.74904,6.36508 -1.04865,7.48834 -2.17221,7.48834 -0.37451,0 -0.74903,-1.72233 -0.74903,-3.96883 0,-2.77069 -0.22472,-3.5944 -0.74904,-2.77069 -0.37452,0.59907 -0.74903,2.84557 -0.74903,5.01719 0,2.09674 -0.29961,4.11859 -0.74904,4.34324 -0.44942,0.29953 -0.74904,-0.52418 -0.74904,-2.02185 0,-1.87208 -0.2247,-2.17161 -0.74903,-1.3479 -0.37451,0.59906 -0.74904,2.02185 -0.74904,3.1451 0,2.99535 -0.82394,4.71765 -1.57297,3.44464 -0.44942,-0.59907 -0.67413,0.14977 -0.67413,2.17162 0,1.79719 -0.29961,3.21999 -0.59922,3.21999 -1.64789,0 -4.04481,-11.00787 -4.41932,-19.84411 -0.29961,-7.93763 -0.14981,-9.88461 1.57298,-16.32459 1.94749,-7.71298 7.34055,-19.76921 10.33668,-23.13897 0.89885,-1.04836 2.54673,-2.17161 3.52047,-2.47115 1.57298,-0.44929 1.72278,-0.37442 1.27336,0.82373 -0.37452,1.04836 0,0.89859 1.57298,-0.67396 2.54671,-2.32139 4.79382,-2.92046 3.14595,-0.74884 -0.59924,0.82372 -0.22472,0.67396 0.82393,-0.29953 2.17221,-1.87209 5.99228,-3.51952 5.99228,-2.47115 0,0.37442 -0.29961,0.8986 -0.74903,1.12325 -0.37452,0.22465 -1.12355,1.19814 -1.57297,2.09674 -0.52433,0.97349 0.74904,0.14976 2.92123,-1.94697 5.61777,-5.24184 6.66642,-4.86743 2.47182,0.97348 -1.42316,2.02185 -0.89883,1.72232 2.62163,-1.57255 3.96989,-3.81906 7.04093,-5.84091 7.04093,-4.71765 0,0.29953 -1.27336,2.02184 -2.84633,3.96882 -5.24325,6.36509 -4.86873,6.43997 1.19845,0.22464 3.37066,-3.36975 6.44171,-6.14043 6.89113,-6.14043 1.04864,0 0.67413,0.67395 -4.34441,7.11392 l -3.96988,5.24184 6.5915,-6.88927 c 5.61777,-5.84091 9.96218,-9.06089 9.96218,-7.33858 0,0.22465 -2.69653,3.59441 -5.99228,7.41345 -3.29576,3.89395 -5.99229,7.18881 -5.99229,7.41347 0,0.22465 2.77143,-2.54604 6.14209,-6.06556 9.43785,-10.03438 9.81236,-10.48367 11.75986,-11.00786 1.42316,-0.4493 0.82393,0.67395 -3.07105,5.31672 -8.98843,11.00786 -10.78611,13.62878 -5.01853,7.41346 10.93591,-11.83158 13.78225,-14.52738 16.02936,-15.05156 2.0973,-0.52419 2.17219,-0.52419 1.12355,0.97348 -0.59923,0.8986 -4.79383,5.91579 -9.28804,11.23251 -14.00696,16.47435 -13.63245,16.2497 2.47181,-1.27302 10.4116,-11.38228 13.55755,-14.0032 16.92821,-14.15296 0.44942,-0.0749 -0.89884,1.3479 -2.99615,3.07022 z"
         style="fill:#ffffff;stroke:#000000;stroke-width:0.43398929;stroke-miterlimit:4;stroke-opacity:1;stroke-dasharray:none;display:inline" />
      <path
         id="path5293"
         d="m -511.49597,448.36011 c -12.05947,15.20134 -20.74827,34.59614 -24.71817,55.48861 -1.87259,10.03438 -1.87259,34.82078 0.0749,45.07981 1.72277,9.36043 5.54286,22.01573 8.98842,30.10313 1.42316,3.44464 2.47182,6.21532 2.32202,6.21532 -0.67414,0 -7.49036,-5.39161 -7.93978,-6.2902 -0.29962,-0.4493 -3.29576,-10.48367 -6.74132,-22.31525 -3.44556,-11.83159 -6.3668,-21.41666 -6.51661,-21.2669 -0.0749,0.14977 2.0973,9.58509 4.94363,20.96735 2.84633,11.38229 5.01854,20.66783 4.86873,20.66783 -0.2247,0 -1.27336,-0.52418 -2.39691,-1.19814 -1.79769,-1.04836 -2.62162,-3.1451 -7.56525,-19.84409 -3.07105,-10.18415 -5.61777,-18.4962 -5.76758,-18.34645 -0.14981,0.0749 1.64787,7.86277 3.89498,17.1483 2.24711,9.36044 4.1197,17.14831 4.1197,17.37296 0,0.22464 -0.97375,-0.0749 -2.17221,-0.74884 -2.3969,-1.19813 -2.3969,-1.12325 -8.76371,-22.9892 -1.57297,-5.31672 -2.92123,-9.43531 -3.07104,-9.28555 -0.14982,0.14977 1.19845,6.58974 3.07104,14.37763 1.79768,7.78787 3.22085,14.22784 3.14594,14.37761 -0.1498,0.0749 -1.34826,-0.29954 -2.77143,-0.8986 -2.54671,-1.04837 -2.62162,-1.19814 -6.21698,-14.22785 -2.0224,-7.26369 -3.82009,-13.02971 -3.9699,-12.87995 -0.1498,0.0749 0.89885,5.69114 2.32201,12.28088 2.62163,12.50553 2.54672,13.02971 -0.89884,11.08274 -1.34826,-0.74883 -2.47181,-2.99533 -4.64402,-9.51019 -3.22085,-9.58508 -3.67027,-9.51019 -1.49806,0.37442 0.82393,3.66929 1.34826,6.81439 1.19845,6.96415 -0.14981,0.14977 -1.42317,0 -2.77143,-0.29953 -2.32201,-0.59907 -2.77143,-1.19814 -4.64402,-6.29021 -1.12356,-3.1451 -1.87259,-4.41811 -1.64788,-2.92045 0.29962,1.42279 0.67413,3.74417 0.89885,5.01719 0.37451,2.24651 0.2247,2.47115 -1.34828,2.47115 -2.54671,0 -3.22085,-0.67395 -5.09344,-4.493 -1.49806,-3.21999 -1.57297,-2.99534 -0.52432,1.64744 0.44943,1.94696 0.29962,2.09673 -2.0973,2.09673 -1.79768,0 -2.69652,-0.37442 -2.92124,-1.3479 -0.29961,-0.97348 -0.37451,-0.97348 -0.44942,0.29954 -0.0749,1.87208 -3.82008,2.99533 -4.71893,1.57255 -0.37451,-0.59908 -0.59922,-0.52419 -0.59922,0.22464 0,0.59907 -1.12356,1.87209 -2.47182,2.77069 -1.34826,0.97348 -3.29575,3.07021 -4.2695,4.71765 -1.04865,1.64744 -2.1722,2.99534 -2.47181,2.99534 -0.89885,0 -4.86873,-9.36043 -6.59151,-15.65064 -2.24711,-8.23717 -2.77143,-23.73804 -1.04865,-33.77241 2.39691,-14.52738 8.6139,-29.20452 16.62858,-39.61332 3.89499,-5.01719 4.86874,-5.76603 9.58766,-7.713 2.84633,-1.19813 5.61776,-1.94696 6.14208,-1.7972 0.52433,0.22465 0.97375,0.0749 0.97375,-0.37441 0,-0.67396 3.07105,-2.24651 3.59536,-1.7972 0.0749,0.0749 -0.14979,1.12324 -0.59921,2.32139 l -0.74905,2.17161 1.34826,-1.79721 c 3.67029,-5.24183 5.46797,-6.14043 3.89499,-1.94696 -1.27335,3.29487 -0.29961,3.07022 1.42317,-0.29953 0.89884,-1.64744 2.24711,-3.36976 3.07104,-3.81906 1.42317,-0.74883 1.42317,-0.74883 -0.0749,2.6958 -2.09731,4.94231 -1.27337,4.86743 1.49806,0 1.27337,-2.2465 2.99615,-4.49299 3.82009,-4.9423 1.94749,-1.04837 1.94749,-0.8986 -0.74904,5.31672 -1.19846,2.84557 -2.0224,5.16695 -1.87258,5.16695 0.14979,0 1.94749,-2.84556 4.04478,-6.29019 2.09731,-3.44464 4.34441,-6.43998 4.94363,-6.73952 1.49808,-0.52418 1.49808,-0.59907 -1.79768,6.66463 -1.64787,3.51952 -2.84634,6.36508 -2.77143,6.36508 0.14981,0 2.0224,-2.92045 4.2695,-6.51485 2.1722,-3.5944 4.56912,-7.11393 5.31816,-7.86276 3.14595,-3.1451 2.69652,-0.82372 -1.19846,6.51486 -2.32201,4.34324 -4.04479,7.86275 -3.89498,7.86275 0.1498,0 2.92123,-4.0437 6.06718,-8.986 5.01854,-7.78788 7.11584,-10.25903 7.11584,-8.53671 0,0.29954 -2.02239,4.34324 -4.56912,8.98601 -2.47182,4.71766 -4.34441,8.5367 -4.1946,8.5367 0.22472,0 3.14595,-4.41811 6.51661,-9.80972 5.24325,-8.31206 8.3892,-11.83158 9.58765,-10.78321 0.22472,0.22465 -6.5915,12.20599 -11.68494,20.59293 -2.99615,4.86743 1.12354,-0.74883 8.01467,-11.00785 6.59151,-9.73484 9.28804,-12.95483 10.26179,-12.05623 0.0749,0.14977 -2.1722,4.26836 -5.09345,9.21066 -8.6139,14.82691 -8.91352,15.3511 -8.53899,15.3511 0.1498,0 4.1946,-5.99068 8.91351,-13.32925 7.04094,-10.78321 9.13824,-13.47902 11.08573,-14.15297 1.34827,-0.52418 2.54672,-0.8986 2.62163,-0.74883 0.0749,0.0749 -2.62163,4.56788 -5.99229,9.88461 -10.78611,17.1483 -12.43398,19.8441 -12.13437,19.8441 0.14981,0 5.16834,-7.03904 11.08572,-15.72551 8.76371,-12.80507 11.16063,-15.87529 13.33283,-16.77388 4.64402,-1.94697 4.64402,-1.34791 0.22471,4.19346 z"
         style="fill:#ffffff;stroke:#000000;stroke-width:0.43398929;stroke-miterlimit:4;stroke-opacity:1;stroke-dasharray:none;display:inline" />
      <path
         id="path5295"
         d="m -432.02333,445.05036 c -22.69575,23.81291 -38.80001,64.47461 -35.57916,89.71032 0.44942,3.59439 1.49807,8.46182 2.32201,10.85809 0.82394,2.39627 1.49807,4.41812 1.49807,4.56789 0,0.0749 -1.64788,-0.52419 -3.59537,-1.42279 l -3.59537,-1.64743 -3.37066,-11.38228 c -1.79768,-6.21532 -3.37066,-11.23251 -3.52046,-11.08275 -0.22471,0.22466 3.14595,17.29807 4.04479,20.74271 0.29961,1.12325 -0.0749,1.3479 -2.24711,1.3479 -2.92124,0 -2.24711,1.49767 -6.96603,-15.27621 -1.12356,-4.04371 -2.17221,-7.03904 -2.24711,-6.66463 -0.1498,0.37443 0.74904,5.39161 1.94749,11.15763 1.19847,5.69114 2.17221,10.4088 2.09731,10.55856 -0.0749,0.0749 -1.04865,0.29953 -2.09731,0.59907 -1.94749,0.4493 -1.94749,0.37441 -5.16834,-10.8581 -1.79769,-6.14044 -3.29576,-11.15762 -3.44556,-11.00786 -0.22472,0.22466 2.77143,16.92365 3.82009,21.26689 0.29961,1.19814 -0.0749,1.87208 -1.19847,2.54603 -2.0973,1.12326 -2.2471,0.8986 -5.16835,-9.58507 -1.34826,-4.64277 -2.62161,-8.31206 -2.77143,-8.16229 -0.2247,0.14977 0.52433,4.64277 1.57298,9.95949 l 2.0224,9.58508 -1.72279,1.3479 c -1.94749,1.64743 -2.02239,1.57255 -4.3444,-6.7395 -0.97374,-3.44464 -1.87258,-6.06556 -2.0224,-5.91579 -0.14981,0.14976 0.22471,3.29486 0.82394,6.88927 1.49807,8.46183 1.49807,9.06089 -0.22471,10.03438 -1.34826,0.67394 -1.57297,0.37441 -2.77143,-3.74417 -1.57297,-5.76603 -2.17221,-5.31672 -0.97374,0.74883 0.67412,3.66928 0.67412,4.9423 -0.0749,6.43998 -1.34826,2.47115 -1.94749,2.24649 -2.84633,-1.04837 -0.74903,-2.62093 -0.74903,-2.47116 -0.44942,1.3479 0.37451,4.56788 -0.59924,7.18881 -2.0224,5.24183 -0.59923,-0.82371 -0.67413,-0.52418 -0.37452,1.49767 0.22472,1.42279 0,4.64277 -0.52433,7.11392 l -0.97374,4.41812 -2.69653,-5.54137 c -6.21698,-12.73017 -8.31429,-22.46502 -8.3892,-38.93937 0,-9.65996 0.37452,-14.30273 1.64789,-21.11712 4.4193,-23.73804 15.57993,-47.02678 22.47105,-47.02678 0.67414,0 0.82395,0.52418 0.52433,1.64744 -0.37451,1.42278 -0.2247,1.27302 1.04865,-0.52419 0.82394,-1.19813 2.1722,-2.47115 3.07104,-2.77069 1.49808,-0.52418 1.49808,-0.52418 0.29962,1.72232 -0.59923,1.27302 -0.97374,2.47116 -0.74904,2.6958 0.14981,0.22465 0.89885,-0.67395 1.49808,-1.87208 2.77143,-5.31672 5.54286,-6.21532 3.37066,-1.12325 -1.72278,4.11859 -1.42317,3.89394 1.87259,-0.97348 1.27335,-1.94698 3.07104,-3.81906 3.96988,-4.11859 1.64789,-0.59907 1.57298,-0.37442 -0.89884,4.56788 -1.42317,2.92046 -2.54672,5.24185 -2.32201,5.24185 0.14981,0 2.0224,-2.69581 4.11969,-5.91579 2.17221,-3.21999 4.56912,-6.06556 5.31816,-6.29021 1.19845,-0.29953 0.97375,0.52418 -1.57298,5.54137 -1.57297,3.21999 -2.77143,5.91579 -2.62162,5.91579 0.14981,0 2.0224,-2.6958 4.1946,-6.06556 3.59537,-5.46648 6.14209,-8.16228 7.64016,-8.16228 0.29962,0 -1.19846,2.92045 -3.22085,6.51485 -7.04093,12.206 -6.81623,12.35576 1.19845,0.59907 3.22086,-4.71766 6.3668,-8.6116 6.89113,-8.6116 0.89884,0 0.74903,0.52419 -0.37451,2.39628 -4.79384,8.0874 -9.06334,15.57574 -8.76372,15.57574 0.1498,0 3.37065,-4.493 7.11583,-10.03437 4.1946,-6.06556 7.49036,-10.18415 8.46411,-10.48368 0.89883,-0.22465 1.64788,-0.29954 1.79768,-0.22465 0.0749,0.14977 -2.62162,4.56789 -5.99228,9.95949 -10.03708,15.65063 -9.66256,15.57575 1.72277,-0.29953 6.66642,-9.28555 9.96219,-12.87995 10.86097,-11.98134 0.1499,0.14976 -2.47177,4.41811 -5.69262,9.58507 -6.96603,10.85809 -7.78996,12.28088 -6.89112,11.75669 0.29961,-0.22465 4.11969,-5.46648 8.4641,-11.68181 5.76761,-8.23717 8.46404,-11.45716 10.03701,-12.05623 1.19848,-0.37442 2.32205,-0.59906 2.54675,-0.44929 0.14979,0.22464 -3.96982,6.58974 -9.13821,14.22784 -5.24323,7.63811 -9.36293,13.92832 -9.13822,13.92832 0.14981,0 5.39306,-6.8144 11.61007,-15.20134 l 11.23546,-15.20133 4.719,-1.57255 c 2.62154,-0.8986 4.86869,-1.64744 5.01849,-1.64744 0.1498,-0.0749 -1.72276,2.02186 -4.11971,4.5679 z"
         style="fill:#ffffff;stroke:#000000;stroke-width:0.43398929;stroke-miterlimit:4;stroke-opacity:1;stroke-dasharray:none;display:inline" />
      <path
         id="path5285-5"
         d="m -403.50198,478.07846 c 10.86096,1.7972 19.84947,3.44463 20.07417,3.5944 0.29959,0.37441 -9.88729,19.91899 -10.78617,20.81759 -0.44939,0.37442 -35.50424,-1.64744 -41.9459,-2.47115 -1.42317,-0.22465 -1.04868,-1.19813 4.8687,-11.83158 6.59156,-11.68181 7.64013,-13.47901 7.86482,-13.47901 0.0749,0 9.06341,1.49766 19.92438,3.36975 z"
         style="fill:#ffffff;stroke:#000000;stroke-width:0.43398929;stroke-miterlimit:4;stroke-opacity:1;stroke-dasharray:none;display:inline" />
      <path
         id="path5339-0"
         d="m -614.83438,412.2002 c 0,0.22465 -0.67413,3.21999 -1.57297,6.66463 l -1.57298,6.21532 -6.4417,-0.37442 c -5.76757,-0.29953 -7.34055,-0.0749 -13.63245,1.94697 -13.63244,4.34324 -22.24635,5.01719 -26.74056,1.94697 l -2.09731,-1.42279 5.99229,-0.44929 c 3.29576,-0.22466 7.78998,-0.97349 10.03708,-1.72233 l 4.11969,-1.42278 -6.14209,-1.94697 c -5.46795,-1.7972 -9.28804,-3.96881 -8.31429,-4.79254 0.14981,-0.14976 2.69652,0.0749 5.54286,0.44931 5.69267,0.82371 7.64017,0.52418 22.47107,-3.51953 6.14209,-1.72232 18.35136,-2.69579 18.35136,-1.57255 z"
         style="fill:#ffffff;stroke:#000000;stroke-width:0.43398929;stroke-miterlimit:4;stroke-opacity:1;stroke-dasharray:none;display:inline" />
      <path
         id="path5345-2"
         d="m -535.41225,401.73329 c 2.54672,0.44931 4.79382,1.04837 5.01854,1.34791 0.1498,0.29953 -0.37452,2.62092 -1.19847,5.16695 -1.27335,3.74417 -1.79768,4.56789 -2.84633,4.11859 -0.67413,-0.29954 -3.22085,-0.97349 -5.69266,-1.49767 -5.16835,-1.19813 -10.18689,-0.67395 -23.2201,2.32139 -4.49423,0.97349 -9.58767,1.87209 -11.23554,1.7972 l -2.99614,-0.0749 2.24711,-0.74883 c 7.41545,-2.47116 10.11198,-3.81905 10.11198,-5.16695 0,-1.19814 -0.59923,-1.42278 -3.52048,-1.42278 -3.96988,0 -8.91351,-1.94698 -10.71119,-4.11859 -1.04866,-1.27302 -0.97375,-1.34791 0.37451,-0.82373 3.29576,1.34791 13.40773,1.42279 18.35137,0.0749 8.98842,-2.39627 15.50503,-2.6958 25.3174,-0.97349 z"
         style="fill:#ffffff;stroke:#000000;stroke-width:0.43398929;stroke-miterlimit:4;stroke-opacity:1;stroke-dasharray:none;display:inline" />
      <path
         id="path5341-8"
         d="m -453.10927,405.25068 c 2.39696,0.52418 4.7189,1.12324 5.0185,1.42278 0.67418,0.59906 -1.57297,9.73484 -2.39685,9.73484 -0.22469,0 -2.09732,-0.52418 -4.11972,-1.12326 -5.54286,-1.72231 -12.28418,-1.34789 -23.44481,1.12326 -5.46796,1.19813 -11.46024,2.24651 -13.18302,2.17162 l -3.14596,0 4.49422,-1.72232 c 7.04094,-2.6958 7.19073,-2.84556 6.96603,-4.11858 -0.14981,-0.82373 -1.42317,-1.34791 -4.34441,-1.64744 -4.11969,-0.44931 -8.4641,-2.17162 -9.36294,-3.74417 -0.37452,-0.52419 0.52432,-0.59907 3.07105,-0.14977 5.31814,0.82372 11.16063,0.4493 17.52742,-1.19813 6.44171,-1.64744 16.32898,-2.02185 22.92049,-0.74883 z"
         style="fill:#ffffff;stroke:#000000;stroke-width:0.43398929;stroke-miterlimit:4;stroke-opacity:1;stroke-dasharray:none;display:inline" />
    </g>
    <g
       id="g6413"
       transform="translate(-25.064644,-38.970112)">
      <path
         sodipodi:nodetypes="ccccccsccccccccsssccccccscccccsccsccccccccccsccccscccccccsccccsscccccccccccccscsccccccccscccccccscccsssscccccccccsscccccsccsccccccccccccscsscccccccscccccccsccccccccccssccccccsccccscccccccccccccccccccccccccccsscscccscccccsccccccsccccccccccccccscccsscccccccccccsccssscccscssccssscscscsccccccccccccsscscccsccccccccccscccccccsccccccccccccccccccsccsccsccsccccccssccccsscccscsccccccsccccccccsccccccccccccccsccccccccccscccscsccscscccccsccccccscccccccccscscssccccsccscccccccccsccccsccscccsccscccccscccccccccccssccscscscscsccccccsccccscccccsccccscccccccsccscccsccsscscscscssccccccccscccccsccscccscsccccccccccccscccccccsccccccccccsccscccccsccccsccccccscccccscccccccccccscccccsscccccccsccccccccssscccccccccsccccscccccccccccccccccccccccsccccccccccccccccccccscccccccccsccccccccccccsscsccccccsccccscccsssccccsccccccccccsccccccccsccsccccccccccccccccccsccccccccccscssccccccccsccccsccscccccccccccccccccccccccsccccccccccccccccscccccsccccc"
         d="m -407.10351,648.04448 c -1.04865,1.12326 -1.49807,2.39628 -1.27336,3.81906 l 0.29962,2.02186 -3.82009,-0.52418 c -6.5166,-0.97349 -15.43013,-0.52419 -21.72202,1.19813 -7.34056,1.94696 -12.80851,2.02185 -19.40003,0.14976 -2.77143,-0.74883 -5.01853,-1.04836 -5.01853,-0.67395 0,1.27302 2.0973,4.71765 3.96989,6.43998 0.97375,0.97348 3.44556,2.32138 5.39305,3.07022 l 3.67027,1.42278 -4.49421,1.27301 c -2.39691,0.67396 -5.54286,1.42279 -6.89112,1.64744 -3.67027,0.59907 -3.52047,1.34791 0.67412,2.77069 5.39307,1.72232 9.13825,1.49767 21.04791,-1.12325 8.08957,-1.7972 11.75986,-2.2465 16.32897,-2.02186 3.22085,0.0749 6.14208,0.52419 6.51661,0.8986 0.29961,0.29955 -1.42317,2.39628 -3.89499,4.64278 -3.29576,2.99533 -5.09344,4.04371 -6.74132,4.04371 -1.19845,0 -3.52047,0.22464 -5.01854,0.44929 l -2.84634,0.52419 0,4.26835 0,4.34324 -17.078,16.02505 c -9.36295,8.83624 -18.42627,16.99854 -20.22395,18.0469 -2.54673,1.64744 -3.14595,2.47115 -3.14595,4.26836 0,1.42278 0.52431,2.47115 1.49806,2.99533 1.34826,0.74884 1.19847,1.12326 -2.77143,6.58974 -4.94363,6.88927 -7.04093,10.93298 -10.7861,20.36829 l -2.77143,7.11392 -1.57298,-5.24184 c -2.0973,-7.11392 -3.07104,-13.70366 -3.07104,-21.26689 0,-6.21532 0,-6.2902 3.29574,-10.85808 10.03708,-13.92832 24.41857,-26.88316 33.5568,-30.10314 3.96989,-1.3479 5.84248,-3.07021 5.84248,-5.24183 0,-2.09675 -2.32201,-3.51953 -4.79383,-2.84557 -1.34827,0.29953 -36.17841,-5.99068 -36.92745,-6.73952 -0.14981,-0.0749 0.67413,-3.36975 1.72278,-7.26369 1.19846,-4.493 2.62162,-7.71299 3.74518,-8.986 2.24711,-2.39627 2.32201,-5.16695 0.0749,-7.2637 -3.74517,-3.51952 -9.36294,-0.29953 -8.4641,4.79254 l 0.44942,2.32138 -6.21699,0.89861 c -3.37066,0.4493 -9.73746,1.87209 -14.00697,3.14511 -9.36294,2.77068 -17.97685,3.21998 -22.77068,1.19813 -3.67027,-1.57255 -3.44555,-1.64744 -3.44555,0.8986 0,2.84557 2.54671,5.91579 6.29189,7.6381 l 2.99615,1.34791 -2.09731,0.52419 c -1.12355,0.22464 -4.71892,0.29953 -8.01468,0.14976 -3.22085,-0.22465 -5.91738,-0.0749 -5.91738,0.22465 0,1.3479 4.94364,6.21532 7.26565,7.11393 5.01854,2.09673 16.25407,0.74882 28.23864,-3.36976 5.01853,-1.7972 12.73359,-2.17162 12.28417,-0.67396 -0.2247,0.52419 -8.08957,6.58974 -17.52742,13.40414 -9.43786,6.88928 -18.05176,13.32925 -19.17532,14.37762 -2.322,2.09673 -2.69652,4.41812 -1.04864,5.91578 0.89885,0.82372 0.82394,1.27302 -0.44942,2.99534 -4.86873,6.88927 -11.08573,25.16082 -11.08573,32.57428 0,3.1451 -0.37451,3.74417 -6.59147,10.55856 -12.5089,13.70367 -27.5646,32.57429 -31.909,39.98775 l -2.0224,3.44463 -1.7976,-1.7972 c -2.1722,-2.17162 -5.0935,-2.32139 -7.1159,-0.29953 -3.2957,3.29486 -0.749,8.23717 4.1197,8.23717 1.7228,0 5.9174,1.64744 12.434,4.86742 l 9.7375,4.9423 -2.2471,2.62093 c -5.3931,6.06555 -2.9962,11.68181 4.4193,10.40879 6.6664,-1.12325 16.92818,5.09207 27.48958,16.699 16.77839,18.34643 26.06644,26.58361 39.54907,34.89567 3.74518,2.32138 7.11584,4.41811 7.49036,4.79253 1.57298,1.27302 18.27647,9.0609 23.44481,10.93298 23.3699,8.38695 49.21163,9.95949 73.48037,4.49301 11.23554,-2.54604 19.47494,-5.4665 30.26104,-10.85809 5.99228,-3.07023 8.91352,-4.11859 9.06333,-3.51952 0.22471,0.52418 0.89884,2.69579 1.57297,4.79254 1.27337,4.11857 5.01855,10.40878 6.59151,11.00785 0.52433,0.14977 12.50889,-1.49767 26.74061,-3.66929 14.23169,-2.17161 26.06644,-3.96882 26.36603,-4.0437 1.42317,-0.0749 3.14593,-8.23718 3.14593,-14.60226 0,-6.51487 -0.14979,-6.96416 -3.29573,-13.02972 -4.04481,-7.71299 -9.96218,-14.0032 -15.95445,-16.92365 -3.89502,-1.87209 -4.19461,-2.17162 -3.37063,-3.44464 0.52429,-0.74882 3.14593,-4.34324 5.76747,-7.93763 5.69268,-7.93765 14.3066,-22.24037 17.30273,-28.97989 l 2.24715,-4.9423 4.11972,0 c 3.89491,0 4.11971,-0.0749 3.74511,-1.72231 -0.52428,-2.47117 -1.87256,-10.4088 -1.87256,-11.15764 0,-0.29953 1.42317,-0.59906 3.14594,-0.59906 l 3.07103,0 -0.44939,-7.93765 -0.44939,-8.01252 13.18302,-25.16083 c 7.26564,-13.85342 13.932,-25.98454 14.90578,-27.10779 3.07103,-3.21999 1.94745,-7.11392 -2.39695,-8.46182 -2.39685,-0.74884 -5.54278,2.09673 -5.54278,4.9423 0,1.27302 -0.74909,3.44463 -1.57297,4.86743 -1.34837,2.09673 -1.94756,2.47115 -3.59542,2.17162 -7.71503,-1.64744 -34.75525,-5.76603 -35.50424,-5.4665 -0.97378,0.37442 -16.25415,27.48221 -16.25415,28.905 0,0.4493 1.12358,0.82371 2.47185,0.82371 1.27337,0 9.1382,0.52419 17.37762,1.12326 8.23943,0.59907 15.87956,1.12325 17.00314,1.12325 1.94746,0 1.94746,0.0749 -4.04481,10.48368 l -6.06717,10.48367 -17.37763,0 c -17.37762,0 -17.45252,0 -17.82701,1.64744 -0.2997,0.8986 -0.59929,1.49767 -0.82399,1.27302 -0.67408,-0.59907 -4.86874,-22.31526 -5.99229,-31.00173 l -1.12356,-8.23718 4.41931,-9.06089 c 8.98841,-18.57109 25.76685,-39.83798 32.20851,-41.03611 4.3444,-0.74884 7.49033,-3.07022 7.49033,-5.54137 0,-2.54604 -1.19837,-3.89394 -3.52042,-3.89394 -1.72276,0 -29.21237,-10.78321 -30.41084,-11.90646 -0.74899,-0.74883 2.77144,-13.02971 4.3444,-15.27622 1.57297,-2.32139 1.42317,-4.49301 -0.59918,-6.36509 -2.24716,-2.09673 -5.0935,-2.09673 -7.11585,0.0749 -1.72281,1.7972 -2.24713,5.31673 -0.89888,6.14045 1.72276,1.04836 0.52439,1.64743 -2.02239,1.04836 -5.09345,-1.19813 -16.62859,-0.82371 -23.07029,0.82373 -7.56526,1.87208 -14.6811,1.87208 -20.52358,0.0749 -2.54672,-0.74883 -4.56911,-1.27302 -4.56911,-1.12325 0,0.22465 0.44942,1.42278 1.04865,2.77069 1.49806,3.51952 4.79382,6.21532 8.98842,7.41345 l 3.59537,1.04837 -5.46796,1.57256 c -3.07104,0.8986 -6.5166,1.87208 -7.78996,2.09673 l -2.24711,0.59906 2.62162,1.12326 c 4.94364,2.17162 11.68496,2.02185 23.07029,-0.52418 9.96218,-2.17162 17.07802,-2.77069 20.97299,-1.72232 1.49808,0.4493 -1.49806,2.99534 -21.3475,18.19667 -12.7336,9.73484 -24.79307,18.79573 -26.81547,20.14364 -4.64402,3.07021 -6.2919,5.09206 -6.3668,7.56321 0,2.02186 2.02239,4.41813 3.67027,4.41813 0.59923,0 0.37452,0.74883 -0.59923,2.09674 -1.94749,2.77068 -8.31429,15.42597 -8.31429,16.54923 0,0.4493 -0.29961,0.82371 -0.67414,0.82371 -1.19845,0 -3.67027,-7.03903 -4.56911,-12.87995 l -0.82394,-5.8409 3.82008,-6.43997 c 4.1197,-7.03904 11.75986,-17.1483 16.02936,-21.19201 3.22085,-3.1451 3.44557,-5.01719 0.67413,-6.21532 -2.84633,-1.19813 -28.01392,-18.72085 -28.46335,-19.69433 -0.44942,-1.34791 3.22086,-12.05624 4.94365,-14.30273 1.94748,-2.54604 2.02238,-5.09208 0.0749,-7.03905 -2.02239,-2.02184 -5.54286,-1.94697 -7.49036,0.14977 z m 5.99229,1.72233 c 1.42317,1.72232 0.2247,4.26835 -2.0224,3.96882 -2.54673,-0.29954 -3.82008,-2.32138 -2.54673,-3.89394 1.27337,-1.49766 3.37066,-1.57255 4.56913,-0.0749 z m 82.39391,2.2465 c 1.04868,1.27302 0.37449,3.81906 -1.19847,4.41812 -1.64787,0.59907 -4.04482,-0.82372 -4.04482,-2.39627 0,-2.84557 3.44563,-4.19347 5.24329,-2.02185 z m -90.78311,4.26835 c 2.54672,0.44931 4.79382,1.04837 5.01854,1.34791 0.1498,0.29953 -0.37452,2.62092 -1.19847,5.16695 -1.27335,3.74417 -1.79768,4.56789 -2.84633,4.11859 -0.67413,-0.29954 -3.22085,-0.97349 -5.69266,-1.49767 -5.16835,-1.19813 -10.18689,-0.67395 -23.2201,2.32139 -4.49423,0.97349 -9.58767,1.87209 -11.23554,1.7972 l -2.99614,-0.0749 2.24711,-0.74883 c 7.41545,-2.47116 10.11198,-3.81905 10.11198,-5.16695 0,-1.19814 -0.59923,-1.42278 -3.52048,-1.42278 -3.96988,0 -8.91351,-1.94698 -10.71119,-4.11859 -1.04866,-1.27302 -0.97375,-1.34791 0.37451,-0.82373 3.29576,1.34791 13.40773,1.42279 18.35137,0.0749 8.98842,-2.39627 15.50503,-2.6958 25.3174,-0.97349 z m -75.20316,2.24651 c 0.97374,1.57255 -0.14981,3.81905 -1.9475,4.19347 -1.19846,0.22465 -3.59536,-1.72232 -3.59536,-2.84557 0,-1.12326 2.3969,-3.07022 3.59536,-2.84557 0.59923,0.14976 1.49808,0.82371 1.9475,1.49767 z m 157.44725,1.42279 c 2.39696,0.52418 4.7189,1.12324 5.0185,1.42278 0.67418,0.59906 -1.57297,9.73484 -2.39685,9.73484 -0.22469,0 -2.09732,-0.52418 -4.11972,-1.12326 -5.54286,-1.72231 -12.28418,-1.34789 -23.44481,1.12326 -5.46796,1.19813 -11.46024,2.24651 -13.18302,2.17162 l -3.14596,0 4.49422,-1.72232 c 7.04094,-2.6958 7.19073,-2.84556 6.96603,-4.11858 -0.14981,-0.82373 -1.42317,-1.34791 -4.34441,-1.64744 -4.11969,-0.44931 -8.4641,-2.17162 -9.36294,-3.74417 -0.37452,-0.52419 0.52432,-0.59907 3.07105,-0.14977 5.31814,0.82372 11.16063,0.4493 17.52742,-1.19813 6.44171,-1.64744 16.32898,-2.02185 22.92049,-0.74883 z m -161.49205,7.03903 c 0,0.22465 -0.67413,3.21999 -1.57297,6.66463 l -1.57298,6.21532 -6.4417,-0.37442 c -5.76757,-0.29953 -7.34055,-0.0749 -13.63245,1.94697 -13.63244,4.34324 -22.24635,5.01719 -26.74056,1.94697 l -2.09731,-1.42279 5.99229,-0.44929 c 3.29576,-0.22466 7.78998,-0.97349 10.03708,-1.72233 l 4.11969,-1.42278 -6.14209,-1.94697 c -5.46795,-1.7972 -9.28804,-3.96881 -8.31429,-4.79254 0.14981,-0.14976 2.69652,0.0749 5.54286,0.44931 5.69267,0.82371 7.64017,0.52418 22.47107,-3.51953 6.14209,-1.72232 18.35136,-2.69579 18.35136,-1.57255 z m 80.67113,3.66929 c -0.22472,0.59906 -0.82395,2.39627 -1.34826,4.11859 -0.52433,1.72232 -1.34828,3.07021 -1.8726,3.07021 -0.97374,0 -0.74904,-0.82371 1.57298,-7.33856 0.1498,-0.44931 0.67413,-0.8986 1.19845,-0.8986 0.44943,0 0.67413,0.44929 0.44943,1.04836 z m 14.23167,9.51019 c 6.5166,4.49301 11.90966,8.53671 12.05947,8.83625 0.22471,0.59906 -19.32511,7.78787 -19.84944,7.26369 -0.14981,-0.14977 0.97375,-2.84557 2.54672,-6.06556 l 2.84633,-5.76603 -1.72278,-1.34789 c -0.89884,-0.74884 -3.29576,-1.94697 -5.24325,-2.69581 -1.94749,-0.67395 -3.82008,-1.57255 -4.11969,-1.7972 -0.52433,-0.4493 0.82393,-6.73951 1.42317,-6.73951 0.1498,0 5.54286,3.74418 12.05947,8.31206 z m 68.38692,-5.76602 c 0,0.59906 -0.67409,3.1451 -1.42315,5.76602 -0.82394,2.62093 -2.1722,7.18881 -2.99615,10.10927 -1.19845,4.0437 -1.94749,5.46648 -3.14594,5.76601 -1.04865,0.29954 -1.42317,0.0749 -1.19846,-0.52418 0.22471,-0.52418 1.79769,-5.46649 3.52047,-11.00786 1.72277,-5.54137 3.29575,-10.25902 3.52046,-10.63344 0.52432,-0.8986 1.72277,-0.59907 1.72277,0.52418 z m 27.7143,10.25903 c 0,0.4493 -30.03629,9.88461 -30.41081,9.4353 -0.22472,-0.22465 4.11968,-15.95016 5.24325,-19.02038 0.2996,-0.59907 4.34441,0.67395 12.73363,4.11859 6.81615,2.77068 12.43393,5.16696 12.43393,5.46649 z m -116.54989,-8.01253 c -0.22472,0.67395 -0.74903,0.97349 -1.19846,0.74884 -0.37452,-0.22466 -0.29962,-0.8986 0.22471,-1.49767 1.12356,-1.3479 1.64789,-0.97348 0.97375,0.74883 z m 80.52132,9.88462 c -1.64789,5.31672 -3.44557,10.03437 -3.89499,10.48367 -0.82394,0.74884 -9.06333,3.36975 -26.59076,8.61159 -3.89498,1.12325 -6.81623,1.87209 -6.59152,1.64743 0.97375,-0.97348 39.77379,-30.7022 39.9236,-30.55242 0.1498,0 -1.19846,4.41812 -2.84633,9.80973 z m -86.06418,-3.07023 c -0.59923,5.54138 -1.49808,6.06556 -1.49808,0.89861 0,-3.29488 -0.2247,-4.26836 -1.12355,-4.26836 -0.82394,0 -0.71837,0.91334 -0.86818,4.13333 l -0.55498,4.47826 -0.90001,-2.52897 c -0.22471,-2.02185 10e-4,-5.33378 -0.44826,-5.85798 -0.59923,-0.74882 -0.0749,-0.97347 2.54672,-0.97347 l 3.29576,0 -0.44942,4.11858 z m 3.96988,-3.5944 c 0.14981,0.37442 -0.1498,2.62091 -0.59922,5.09207 l -0.89884,4.493 -0.29962,-5.09206 c -0.22471,-3.51952 -0.0749,-5.01719 0.59923,-5.01719 0.44942,0 0.97374,0.22465 1.19845,0.52418 z m -10.71121,4.71766 c 0,2.47115 -0.29961,4.49299 -0.74903,4.49299 -0.44942,0 -0.74903,-2.02184 -0.74903,-4.49299 0,-2.47116 0.29961,-4.49301 0.74903,-4.49301 0.44942,0 0.74903,2.02185 0.74903,4.49301 z m 15.13053,-3.21999 c -0.44943,0.74883 -0.97375,2.77068 -1.27336,4.493 -0.29962,1.7972 -0.82395,3.21998 -1.27337,3.21998 -0.44942,0 -0.59922,-0.8986 -0.29961,-2.32138 0.22471,-1.27301 0.44942,-3.29487 0.44942,-4.493 0,-1.64744 0.37452,-2.17162 1.49807,-2.17162 1.27336,0 1.42317,0.29953 0.89885,1.27302 z m 8.6888,1.72232 c 1.72278,0.74883 3.14595,1.7972 3.14595,2.24649 0,0.44931 -0.89884,2.54604 -1.94749,4.64278 -1.27336,2.54603 -2.1722,3.51952 -2.69653,2.99534 -0.44942,-0.44931 -0.2247,-1.72232 0.82395,-3.74417 0.89884,-1.72233 1.57296,-3.59441 1.57296,-4.26836 0,-2.2465 -1.57296,-1.04837 -3.14594,2.39627 -2.0973,4.41812 -2.0224,4.26835 -2.47182,3.81905 -0.22471,-0.22465 0.14981,-1.79719 0.74904,-3.5944 1.34826,-3.89393 1.42317,-5.24184 0.1498,-5.24184 -0.52432,0 -1.64788,1.94697 -2.39691,4.26835 -1.57297,4.79254 -2.39691,3.89394 -1.19846,-1.27302 0.37452,-1.7972 0.52433,-3.59439 0.29961,-3.96881 -0.59922,-0.97349 2.99615,-0.0749 7.11584,1.72232 z m -90.48348,0.59907 c 0,2.47115 -3.67027,14.60226 -4.64402,15.20132 -1.49807,0.97349 -1.57298,0.29954 -0.29961,-4.11858 0.67413,-2.32138 1.72278,-6.06556 2.39691,-8.31206 1.12355,-3.96883 2.54672,-5.54137 2.54672,-2.77068 z m 17.60234,1.27301 c 7.41544,1.49767 14.00696,2.84557 14.60619,3.14511 0.59922,0.22465 -6.4417,2.47115 -15.72975,5.09206 -9.28804,2.54604 -17.0031,4.5679 -17.15292,4.41812 -0.14979,-0.14976 0.22472,-2.17161 0.89885,-4.56788 0.67414,-2.39628 1.57297,-5.76603 2.0224,-7.56322 0.44942,-1.72233 1.04865,-3.14511 1.34826,-3.14511 0.29962,0 6.59151,1.19813 14.00697,2.62092 z m 186.13531,2.17162 c 0,1.57255 -1.72276,2.6958 -6.51666,4.11859 -2.39684,0.74883 -14.45639,4.94231 -26.81542,9.36043 -12.35908,4.41812 -29.512,10.55856 -38.12591,13.62877 -11.75985,4.19348 -16.40387,5.54137 -18.72588,5.39161 -2.24711,-0.14977 -3.14596,-0.59907 -3.29575,-1.57255 -0.52433,-2.6958 2.84632,-4.94231 11.38533,-7.63811 35.9537,-11.38227 78.34907,-24.26222 80.07194,-24.26222 1.19837,-0.0749 2.02235,0.29953 2.02235,0.97348 z m -210.62877,6.21532 c -0.82394,3.21999 -1.79769,6.06555 -2.0224,6.3651 -0.44942,0.52418 -6.96603,2.47115 -19.10041,5.76602 -1.64787,0.4493 -2.62162,0.4493 -2.2471,0.14976 1.04865,-0.97348 24.34365,-18.0469 24.64327,-18.0469 0.1498,0 -0.44942,2.62092 -1.27336,5.76602 z m 50.33517,-3.51952 c 0,1.19814 -2.47181,2.09673 -25.16758,8.91113 -48.38769,14.45249 -56.47728,16.699 -57.60082,16.32458 -0.89885,-0.37441 -0.97375,-0.82372 -0.22472,-2.32138 0.89884,-2.09674 1.27336,-2.24651 18.20156,-6.73951 5.39305,-1.42279 20.67337,-5.61626 34.08112,-9.36043 30.26102,-8.38694 29.43709,-8.16229 30.18613,-7.78787 0.29961,0.14977 0.52431,0.59906 0.52431,0.97348 z m 22.39617,1.72233 c 1.34826,-0.29954 0.1498,1.64742 -5.46796,9.28553 l -7.19075,9.73485 -9.51274,3.44464 c -5.24325,1.87208 -9.58765,3.36974 -9.73746,3.29486 -0.0749,-0.14976 6.29189,-6.14043 14.15677,-13.47901 10.18687,-9.43532 14.53129,-13.1046 15.13051,-12.58041 0.52433,0.4493 1.64788,0.52418 2.62163,0.29954 z m 5.99228,6.43996 -2.2471,6.66463 -5.61777,2.02185 c -3.07104,1.12325 -5.76757,1.94697 -5.84247,1.79721 -0.14982,-0.14978 2.47182,-4.04372 5.84247,-8.68649 5.09344,-7.03903 6.36681,-8.38694 8.08959,-8.46182 l 2.02238,0 -2.2471,6.66462 z m 6.4417,-5.76602 c -2.84632,9.28555 -3.59537,11.08275 -4.64402,11.08275 -0.59922,0 -0.97373,-0.44931 -0.82393,-0.97349 0.22471,-0.4493 1.12355,-3.1451 2.0224,-5.99067 1.04865,-2.99534 2.09729,-5.01719 2.77143,-5.01719 0.52432,0 0.89884,0.4493 0.67412,0.8986 z m 38.20082,-0.22465 c -0.44943,0.37442 -9.51275,4.11859 -20.22396,8.31206 -10.71121,4.19347 -29.4371,11.53205 -41.57147,16.2497 -12.13438,4.79253 -23.29501,8.98601 -24.71817,9.28554 -3.07105,0.74884 -5.24325,0.22465 -5.24325,-1.12324 0,-1.27302 2.92124,-2.47116 26.21624,-10.85811 10.4865,-3.74417 28.68807,-10.33391 40.44791,-14.60226 19.17532,-7.03904 27.19,-9.28554 25.0927,-7.26369 z m -27.86413,3.74417 2.09731,1.3479 -6.217,2.24651 c -3.44557,1.27302 -6.29189,2.2465 -6.3668,2.17162 -0.14981,-0.14978 0.29961,-1.87209 0.97375,-3.89395 0.67413,-2.02184 1.27336,-4.11858 1.49806,-4.64276 0.29962,-1.04838 3.9699,0.22464 8.01468,2.77068 z m 98.19853,3.96883 c -22.69575,23.81291 -38.80001,64.47461 -35.57916,89.71032 0.44942,3.59439 1.49807,8.46182 2.32201,10.85809 0.82394,2.39627 1.49807,4.41812 1.49807,4.56789 0,0.0749 -1.64788,-0.52419 -3.59537,-1.42279 l -3.59537,-1.64743 -3.37066,-11.38228 c -1.79768,-6.21532 -3.37066,-11.23251 -3.52046,-11.08275 -0.22471,0.22466 3.14595,17.29807 4.04479,20.74271 0.29961,1.12325 -0.0749,1.3479 -2.24711,1.3479 -2.92124,0 -2.24711,1.49767 -6.96603,-15.27621 -1.12356,-4.04371 -2.17221,-7.03904 -2.24711,-6.66463 -0.1498,0.37443 0.74904,5.39161 1.94749,11.15763 1.19847,5.69114 2.17221,10.4088 2.09731,10.55856 -0.0749,0.0749 -1.04865,0.29953 -2.09731,0.59907 -1.94749,0.4493 -1.94749,0.37441 -5.16834,-10.8581 -1.79769,-6.14044 -3.29576,-11.15762 -3.44556,-11.00786 -0.22472,0.22466 2.77143,16.92365 3.82009,21.26689 0.29961,1.19814 -0.0749,1.87208 -1.19847,2.54603 -2.0973,1.12326 -2.2471,0.8986 -5.16835,-9.58507 -1.34826,-4.64277 -2.62161,-8.31206 -2.77143,-8.16229 -0.2247,0.14977 0.52433,4.64277 1.57298,9.95949 l 2.0224,9.58508 -1.72279,1.3479 c -1.94749,1.64743 -2.02239,1.57255 -4.3444,-6.7395 -0.97374,-3.44464 -1.87258,-6.06556 -2.0224,-5.91579 -0.14981,0.14976 0.22471,3.29486 0.82394,6.88927 1.49807,8.46183 1.49807,9.06089 -0.22471,10.03438 -1.34826,0.67394 -1.57297,0.37441 -2.77143,-3.74417 -1.57297,-5.76603 -2.17221,-5.31672 -0.97374,0.74883 0.67412,3.66928 0.67412,4.9423 -0.0749,6.43998 -1.34826,2.47115 -1.94749,2.24649 -2.84633,-1.04837 -0.74903,-2.62093 -0.74903,-2.47116 -0.44942,1.3479 0.37451,4.56788 -0.59924,7.18881 -2.0224,5.24183 -0.59923,-0.82371 -0.67413,-0.52418 -0.37452,1.49767 0.22472,1.42279 0,4.64277 -0.52433,7.11392 l -0.97374,4.41812 -2.69653,-5.54137 c -6.21698,-12.73017 -8.31429,-22.46502 -8.3892,-38.93937 0,-9.65996 0.37452,-14.30273 1.64789,-21.11712 4.4193,-23.73804 15.57993,-47.02678 22.47105,-47.02678 0.67414,0 0.82395,0.52418 0.52433,1.64744 -0.37451,1.42278 -0.2247,1.27302 1.04865,-0.52419 0.82394,-1.19813 2.1722,-2.47115 3.07104,-2.77069 1.49808,-0.52418 1.49808,-0.52418 0.29962,1.72232 -0.59923,1.27302 -0.97374,2.47116 -0.74904,2.6958 0.14981,0.22465 0.89885,-0.67395 1.49808,-1.87208 2.77143,-5.31672 5.54286,-6.21532 3.37066,-1.12325 -1.72278,4.11859 -1.42317,3.89394 1.87259,-0.97348 1.27335,-1.94698 3.07104,-3.81906 3.96988,-4.11859 1.64789,-0.59907 1.57298,-0.37442 -0.89884,4.56788 -1.42317,2.92046 -2.54672,5.24185 -2.32201,5.24185 0.14981,0 2.0224,-2.69581 4.11969,-5.91579 2.17221,-3.21999 4.56912,-6.06556 5.31816,-6.29021 1.19845,-0.29953 0.97375,0.52418 -1.57298,5.54137 -1.57297,3.21999 -2.77143,5.91579 -2.62162,5.91579 0.14981,0 2.0224,-2.6958 4.1946,-6.06556 3.59537,-5.46648 6.14209,-8.16228 7.64016,-8.16228 0.29962,0 -1.19846,2.92045 -3.22085,6.51485 -7.04093,12.206 -6.81623,12.35576 1.19845,0.59907 3.22086,-4.71766 6.3668,-8.6116 6.89113,-8.6116 0.89884,0 0.74903,0.52419 -0.37451,2.39628 -4.79384,8.0874 -9.06334,15.57574 -8.76372,15.57574 0.1498,0 3.37065,-4.493 7.11583,-10.03437 4.1946,-6.06556 7.49036,-10.18415 8.46411,-10.48368 0.89883,-0.22465 1.64788,-0.29954 1.79768,-0.22465 0.0749,0.14977 -2.62162,4.56789 -5.99228,9.95949 -10.03708,15.65063 -9.66256,15.57575 1.72277,-0.29953 6.66642,-9.28555 9.96219,-12.87995 10.86097,-11.98134 0.1499,0.14976 -2.47177,4.41811 -5.69262,9.58507 -6.96603,10.85809 -7.78996,12.28088 -6.89112,11.75669 0.29961,-0.22465 4.11969,-5.46648 8.4641,-11.68181 5.76761,-8.23717 8.46404,-11.45716 10.03701,-12.05623 1.19848,-0.37442 2.32205,-0.59906 2.54675,-0.44929 0.14979,0.22464 -3.96982,6.58974 -9.13821,14.22784 -5.24323,7.63811 -9.36293,13.92832 -9.13822,13.92832 0.14981,0 5.39306,-6.8144 11.61007,-15.20134 l 11.23546,-15.20133 4.719,-1.57255 c 2.62154,-0.8986 4.86869,-1.64744 5.01849,-1.64744 0.1498,-0.0749 -1.72276,2.02186 -4.11971,4.5679 z m -79.47264,2.24649 c -12.05947,15.20134 -20.74827,34.59614 -24.71817,55.48861 -1.87259,10.03438 -1.87259,34.82078 0.0749,45.07981 1.72277,9.36043 5.54286,22.01573 8.98842,30.10313 1.42316,3.44464 2.47182,6.21532 2.32202,6.21532 -0.67414,0 -7.49036,-5.39161 -7.93978,-6.2902 -0.29962,-0.4493 -3.29576,-10.48367 -6.74132,-22.31525 -3.44556,-11.83159 -6.3668,-21.41666 -6.51661,-21.2669 -0.0749,0.14977 2.0973,9.58509 4.94363,20.96735 2.84633,11.38229 5.01854,20.66783 4.86873,20.66783 -0.2247,0 -1.27336,-0.52418 -2.39691,-1.19814 -1.79769,-1.04836 -2.62162,-3.1451 -7.56525,-19.84409 -3.07105,-10.18415 -5.61777,-18.4962 -5.76758,-18.34645 -0.14981,0.0749 1.64787,7.86277 3.89498,17.1483 2.24711,9.36044 4.1197,17.14831 4.1197,17.37296 0,0.22464 -0.97375,-0.0749 -2.17221,-0.74884 -2.3969,-1.19813 -2.3969,-1.12325 -8.76371,-22.9892 -1.57297,-5.31672 -2.92123,-9.43531 -3.07104,-9.28555 -0.14982,0.14977 1.19845,6.58974 3.07104,14.37763 1.79768,7.78787 3.22085,14.22784 3.14594,14.37761 -0.1498,0.0749 -1.34826,-0.29954 -2.77143,-0.8986 -2.54671,-1.04837 -2.62162,-1.19814 -6.21698,-14.22785 -2.0224,-7.26369 -3.82009,-13.02971 -3.9699,-12.87995 -0.1498,0.0749 0.89885,5.69114 2.32201,12.28088 2.62163,12.50553 2.54672,13.02971 -0.89884,11.08274 -1.34826,-0.74883 -2.47181,-2.99533 -4.64402,-9.51019 -3.22085,-9.58508 -3.67027,-9.51019 -1.49806,0.37442 0.82393,3.66929 1.34826,6.81439 1.19845,6.96415 -0.14981,0.14977 -1.42317,0 -2.77143,-0.29953 -2.32201,-0.59907 -2.77143,-1.19814 -4.64402,-6.29021 -1.12356,-3.1451 -1.87259,-4.41811 -1.64788,-2.92045 0.29962,1.42279 0.67413,3.74417 0.89885,5.01719 0.37451,2.24651 0.2247,2.47115 -1.34828,2.47115 -2.54671,0 -3.22085,-0.67395 -5.09344,-4.493 -1.49806,-3.21999 -1.57297,-2.99534 -0.52432,1.64744 0.44943,1.94696 0.29962,2.09673 -2.0973,2.09673 -1.79768,0 -2.69652,-0.37442 -2.92124,-1.3479 -0.29961,-0.97348 -0.37451,-0.97348 -0.44942,0.29954 -0.0749,1.87208 -3.82008,2.99533 -4.71893,1.57255 -0.37451,-0.59908 -0.59922,-0.52419 -0.59922,0.22464 0,0.59907 -1.12356,1.87209 -2.47182,2.77069 -1.34826,0.97348 -3.29575,3.07021 -4.2695,4.71765 -1.04865,1.64744 -2.1722,2.99534 -2.47181,2.99534 -0.89885,0 -4.86873,-9.36043 -6.59151,-15.65064 -2.24711,-8.23717 -2.77143,-23.73804 -1.04865,-33.77241 2.39691,-14.52738 8.6139,-29.20452 16.62858,-39.61332 3.89499,-5.01719 4.86874,-5.76603 9.58766,-7.713 2.84633,-1.19813 5.61776,-1.94696 6.14208,-1.7972 0.52433,0.22465 0.97375,0.0749 0.97375,-0.37441 0,-0.67396 3.07105,-2.24651 3.59536,-1.7972 0.0749,0.0749 -0.14979,1.12324 -0.59921,2.32139 l -0.74905,2.17161 1.34826,-1.79721 c 3.67029,-5.24183 5.46797,-6.14043 3.89499,-1.94696 -1.27335,3.29487 -0.29961,3.07022 1.42317,-0.29953 0.89884,-1.64744 2.24711,-3.36976 3.07104,-3.81906 1.42317,-0.74883 1.42317,-0.74883 -0.0749,2.6958 -2.09731,4.94231 -1.27337,4.86743 1.49806,0 1.27337,-2.2465 2.99615,-4.49299 3.82009,-4.9423 1.94749,-1.04837 1.94749,-0.8986 -0.74904,5.31672 -1.19846,2.84557 -2.0224,5.16695 -1.87258,5.16695 0.14979,0 1.94749,-2.84556 4.04478,-6.29019 2.09731,-3.44464 4.34441,-6.43998 4.94363,-6.73952 1.49808,-0.52418 1.49808,-0.59907 -1.79768,6.66463 -1.64787,3.51952 -2.84634,6.36508 -2.77143,6.36508 0.14981,0 2.0224,-2.92045 4.2695,-6.51485 2.1722,-3.5944 4.56912,-7.11393 5.31816,-7.86276 3.14595,-3.1451 2.69652,-0.82372 -1.19846,6.51486 -2.32201,4.34324 -4.04479,7.86275 -3.89498,7.86275 0.1498,0 2.92123,-4.0437 6.06718,-8.986 5.01854,-7.78788 7.11584,-10.25903 7.11584,-8.53671 0,0.29954 -2.02239,4.34324 -4.56912,8.98601 -2.47182,4.71766 -4.34441,8.5367 -4.1946,8.5367 0.22472,0 3.14595,-4.41811 6.51661,-9.80972 5.24325,-8.31206 8.3892,-11.83158 9.58765,-10.78321 0.22472,0.22465 -6.5915,12.20599 -11.68494,20.59293 -2.99615,4.86743 1.12354,-0.74883 8.01467,-11.00785 6.59151,-9.73484 9.28804,-12.95483 10.26179,-12.05623 0.0749,0.14977 -2.1722,4.26836 -5.09345,9.21066 -8.6139,14.82691 -8.91352,15.3511 -8.53899,15.3511 0.1498,0 4.1946,-5.99068 8.91351,-13.32925 7.04094,-10.78321 9.13824,-13.47902 11.08573,-14.15297 1.34827,-0.52418 2.54672,-0.8986 2.62163,-0.74883 0.0749,0.0749 -2.62163,4.56788 -5.99229,9.88461 -10.78611,17.1483 -12.43398,19.8441 -12.13437,19.8441 0.14981,0 5.16834,-7.03904 11.08572,-15.72551 8.76371,-12.80507 11.16063,-15.87529 13.33283,-16.77388 4.64402,-1.94697 4.64402,-1.34791 0.22471,4.19346 z m -81.49506,-1.49766 c -12.35908,10.18414 -23.51971,24.18734 -30.03632,37.66635 -5.16834,10.70833 -7.26564,19.17016 -7.26564,29.8036 0,6.66462 -0.14981,7.86276 -0.97375,7.18881 -0.59922,-0.44931 -1.04865,-2.39628 -1.12355,-4.34324 0,-1.87208 -0.29961,-5.16696 -0.67413,-7.1888 -0.52432,-3.59441 -0.52432,-3.59441 -0.67414,2.02184 0,3.21999 -0.2247,5.8409 -0.37451,5.8409 -2.32201,0 -2.69653,-1.12324 -2.77143,-8.16229 -0.0749,-6.06555 -0.22472,-6.66461 -0.74904,-3.81904 -0.29961,1.87208 -0.59923,4.79253 -0.59923,6.51485 -0.0749,2.39627 -0.29962,3.07022 -1.12355,2.77068 -0.67413,-0.29953 -1.19845,-2.6958 -1.64788,-8.01252 l -0.67413,-7.63811 -0.22471,6.88928 c -0.0749,3.81905 -0.29962,6.96416 -0.52433,6.96416 -2.02239,0 -2.62162,-1.27302 -2.69652,-5.54138 -0.0749,-6.51486 -1.27336,-9.73484 -1.34827,-3.81905 -0.1498,5.61626 -0.67413,7.86276 -2.02239,7.86276 -0.74904,0 -1.04865,-0.97349 -1.12356,-3.21999 0,-1.72232 -0.29961,-4.49301 -0.59922,-6.14044 -0.59923,-2.54603 -0.67413,-2.09674 -0.74904,3.1451 -0.0749,4.79254 -0.29961,6.21533 -1.12355,6.21533 -1.27337,0 -1.87259,-2.2465 -2.0224,-7.48835 -0.14981,-4.0437 -0.14981,-4.0437 -0.74903,1.49768 -0.74904,6.36508 -1.04865,7.48834 -2.17221,7.48834 -0.37451,0 -0.74903,-1.72233 -0.74903,-3.96883 0,-2.77069 -0.22472,-3.5944 -0.74904,-2.77069 -0.37452,0.59907 -0.74903,2.84557 -0.74903,5.01719 0,2.09674 -0.29961,4.11859 -0.74904,4.34324 -0.44942,0.29953 -0.74904,-0.52418 -0.74904,-2.02185 0,-1.87208 -0.2247,-2.17161 -0.74903,-1.3479 -0.37451,0.59906 -0.74904,2.02185 -0.74904,3.1451 0,2.99535 -0.82394,4.71765 -1.57297,3.44464 -0.44942,-0.59907 -0.67413,0.14977 -0.67413,2.17162 0,1.79719 -0.29961,3.21999 -0.59922,3.21999 -1.64789,0 -4.04481,-11.00787 -4.41932,-19.84411 -0.29961,-7.93763 -0.14981,-9.88461 1.57298,-16.32459 1.94749,-7.71298 7.34055,-19.76921 10.33668,-23.13897 0.89885,-1.04836 2.54673,-2.17161 3.52047,-2.47115 1.57298,-0.44929 1.72278,-0.37442 1.27336,0.82373 -0.37452,1.04836 0,0.89859 1.57298,-0.67396 2.54671,-2.32139 4.79382,-2.92046 3.14595,-0.74884 -0.59924,0.82372 -0.22472,0.67396 0.82393,-0.29953 2.17221,-1.87209 5.99228,-3.51952 5.99228,-2.47115 0,0.37442 -0.29961,0.8986 -0.74903,1.12325 -0.37452,0.22465 -1.12355,1.19814 -1.57297,2.09674 -0.52433,0.97349 0.74904,0.14976 2.92123,-1.94697 5.61777,-5.24184 6.66642,-4.86743 2.47182,0.97348 -1.42316,2.02185 -0.89883,1.72232 2.62163,-1.57255 3.96989,-3.81906 7.04093,-5.84091 7.04093,-4.71765 0,0.29953 -1.27336,2.02184 -2.84633,3.96882 -5.24325,6.36509 -4.86873,6.43997 1.19845,0.22464 3.37066,-3.36975 6.44171,-6.14043 6.89113,-6.14043 1.04864,0 0.67413,0.67395 -4.34441,7.11392 l -3.96988,5.24184 6.5915,-6.88927 c 5.61777,-5.84091 9.96218,-9.06089 9.96218,-7.33858 0,0.22465 -2.69653,3.59441 -5.99228,7.41345 -3.29576,3.89395 -5.99229,7.18881 -5.99229,7.41347 0,0.22465 2.77143,-2.54604 6.14209,-6.06556 9.43785,-10.03438 9.81236,-10.48367 11.75986,-11.00786 1.42316,-0.4493 0.82393,0.67395 -3.07105,5.31672 -8.98843,11.00786 -10.78611,13.62878 -5.01853,7.41346 10.93591,-11.83158 13.78225,-14.52738 16.02936,-15.05156 2.0973,-0.52419 2.17219,-0.52419 1.12355,0.97348 -0.59923,0.8986 -4.79383,5.91579 -9.28804,11.23251 -14.00696,16.47435 -13.63245,16.2497 2.47181,-1.27302 10.4116,-11.38228 13.55755,-14.0032 16.92821,-14.15296 0.44942,-0.0749 -0.89884,1.3479 -2.99615,3.07022 z m 216.4712,23.8878 c 1.04868,3.14511 -3.37062,4.94231 -4.5691,1.79721 -0.74898,-1.87209 0.2997,-3.36976 2.24715,-3.36976 1.19848,0 2.02236,0.52418 2.32195,1.57255 z m -143.73985,16.54924 2.09729,4.26835 -2.02239,6.58974 c -2.54672,8.31206 -4.04479,15.65063 -5.01854,24.41199 -0.67413,5.3916 -1.27336,7.56322 -2.99614,10.25903 -1.12355,1.87209 -2.92124,4.94231 -3.82008,6.88928 -0.97375,2.02185 -1.94749,3.5944 -2.2471,3.5944 -0.89885,0 -1.64789,-14.30273 -1.19847,-23.58828 0.74905,-14.60226 3.74518,-28.30592 8.91353,-40.73658 l 2.39691,-5.69113 0.89884,4.86742 c 0.44943,2.69581 1.79769,6.81439 2.99615,9.13578 z m 117.07423,-8.76136 c 10.86096,1.7972 19.84947,3.44463 20.07417,3.5944 0.29959,0.37441 -9.88729,19.91899 -10.78617,20.81759 -0.44939,0.37442 -35.50424,-1.64744 -41.9459,-2.47115 -1.42317,-0.22465 -1.04868,-1.19813 4.8687,-11.83158 6.59156,-11.68181 7.64013,-13.47901 7.86482,-13.47901 0.0749,0 9.06341,1.49766 19.92438,3.36975 z m 22.77071,-2.17162 c 0.74898,0.74883 -0.89888,3.29487 -2.09736,3.29487 -1.34827,0 -1.34827,-0.37441 -0.37449,-2.32138 0.82398,-1.42279 1.64786,-1.7972 2.47185,-0.97349 z m -237.66898,9.58507 c 0,5.39161 1.87259,15.12646 4.1946,21.49155 1.87259,5.09206 1.87259,5.24183 0.67414,11.23251 -1.42317,7.6381 -1.49807,23.4385 -0.0749,30.77707 1.42317,7.33858 2.92125,11.60693 6.96603,19.84411 1.87259,3.81905 3.22085,7.33858 3.07104,7.78787 -0.37451,1.04837 -6.06717,-3.66928 -9.81235,-8.16229 -3.29576,-3.89393 -7.26565,-10.85809 -9.43785,-16.47434 -1.57298,-3.89395 -1.57298,-3.89395 -0.0749,-3.89395 1.42317,0 1.49808,-0.52418 1.49808,-9.36042 l 0,-9.36043 -2.24711,0 c -1.87258,0 -2.32201,-0.37442 -3.07105,-2.84557 -0.44942,-1.49766 -1.04864,-6.66461 -1.19845,-11.38227 -0.29961,-6.96416 -0.0749,-9.80973 1.19845,-15.12645 1.57298,-6.66463 6.51661,-18.57109 7.64017,-18.57109 0.37451,0 0.67412,1.7972 0.67412,4.0437 z m 161.34224,21.41666 c 1.04866,6.36509 2.77143,15.05157 3.82009,19.24503 l 1.79767,7.63812 -1.42316,4.26835 c -0.82393,2.32138 -1.27335,4.493 -1.04865,4.86742 0.22472,0.37442 -1.27336,2.47115 -3.37065,4.64277 l -3.74518,3.89394 -1.42317,-3.44463 c -4.86873,-11.23252 -4.34441,-29.72871 1.42317,-48.22492 0.82394,-2.7707 1.64788,-4.86743 1.79768,-4.71765 0.1498,0.0749 1.12355,5.46648 2.1722,11.83157 z m -214.14923,7.48834 1.04865,5.61625 -6.217,22.46503 -6.21698,22.46501 -2.5467,-0.22464 c -3.0711,-0.22465 -25.3923,-10.55856 -25.3923,-11.75669 0,-2.92046 18.4262,-26.88314 33.332,-43.20773 4.26955,-4.71765 4.49426,-4.86742 4.71897,-2.99534 0.0749,1.12326 0.67412,4.5679 1.27336,7.63811 z m 275.27049,-8.38694 c 0,0.14976 -2.24705,4.71766 -5.01849,9.95949 -4.94369,9.36043 -5.16839,9.65996 -7.49033,9.65996 -1.34828,0 -2.47185,-0.22465 -2.47185,-0.44929 0,-0.29955 2.54674,-4.94232 5.69267,-10.33391 5.1684,-8.91113 5.91738,-9.88462 7.49034,-9.58509 0.97378,0.14978 1.79766,0.52419 1.79766,0.74884 z m -252.05039,9.80972 c -0.22471,1.19814 -1.19846,4.64278 -2.0973,7.713 l -1.72279,5.46648 -5.76757,0.22466 c -5.54286,0.22465 -5.76757,0.14976 -5.76757,-1.49768 0,-7.6381 5.91738,-14.00319 12.95831,-14.07808 2.77143,0 2.84634,0.0749 2.39692,2.17162 z m 5.84247,2.24651 c -2.54672,10.33391 -2.77143,10.93297 -5.01854,11.15763 -1.79768,0.22465 -2.09729,0 -1.79768,-1.12326 4.04479,-14.60226 3.67027,-13.62877 5.54286,-12.80506 1.42317,0.67395 1.64788,1.19813 1.27336,2.77069 z m 11.08573,7.03904 c 1.19845,1.64743 2.1722,3.29487 2.1722,3.66929 0,0.29953 -2.99615,0.59906 -6.74132,0.59906 -3.67028,0 -6.74132,-0.22465 -6.74132,-0.44929 0,-0.52419 2.1722,-9.21067 2.62163,-10.63344 0.52432,-1.34791 5.84248,2.84555 8.68881,6.81438 z m -35.6541,2.92045 c 1.57299,3.44463 1.8726,5.09207 1.8726,11.98135 l 0,8.0874 2.47182,0 2.54671,0 0,5.76603 c 0.0749,3.21999 0.82395,8.91112 1.72279,12.73017 1.72278,7.33858 1.34826,9.9595 -1.34826,9.9595 -0.74904,0 -4.56912,-1.87209 -8.46411,-4.19347 -3.82008,-2.32139 -8.23938,-4.79254 -9.73748,-5.46649 l -2.6965,-1.19813 5.69266,-20.74271 c 3.14595,-11.45716 5.76758,-20.81758 5.91739,-20.81758 0.1498,0 1.04864,1.79719 2.02238,3.89393 z m 260.28982,2.2465 c 0,1.34791 0.22469,4.26836 0.44939,6.36509 l 0.52439,3.96882 -22.92051,0 -22.9205,0 1.87266,-5.46648 c 0.97367,-2.92046 1.94745,-5.84091 2.17215,-6.36509 0.22469,-0.67396 5.09349,-0.8986 20.59845,-0.8986 l 20.22397,0 0,2.39626 z m -217.22027,8.08741 0,6.73951 -19.47492,0 -19.47493,0 0,-6.73951 0,-6.7395 19.47493,0 19.47492,0 0,6.7395 z m 98.19854,8.08741 c 1.42317,12.13111 5.24325,23.8878 11.01083,33.24823 4.64402,7.713 4.64402,7.78788 0.1498,8.76136 -2.09729,0.4493 -4.2695,0.82372 -4.79382,0.82372 -2.0973,0 -11.61005,-24.18734 -13.93206,-35.41985 -0.97374,-5.01719 -0.52432,-7.03905 3.67028,-15.12645 l 2.69652,-5.24184 0.1498,2.99533 c 0.14981,1.64744 0.59924,6.14045 1.04865,9.9595 z m 114.45263,1.72232 c 0.44939,2.99534 0.74898,5.46649 0.59918,5.61625 -0.14979,0.22465 -11.31035,0.22465 -24.71816,0.14977 l -24.49342,-0.22465 4.71891,-5.3916 4.64403,-5.39161 19.17529,0 19.17529,-0.0749 0.89888,5.31672 z m -219.09288,6.06556 c 6.44171,19.76922 23.0703,34.07195 46.5151,40.28727 14.90581,3.89394 30.93517,5.09207 49.43634,3.81905 37.9012,-2.62092 55.35373,-9.88461 77.30047,-32.0501 l 9.88724,-9.95949 14.2317,0 c 9.28799,0 14.30659,0.29953 14.30659,0.74884 0,2.17162 -9.81239,19.3948 -16.92824,29.65383 -5.46798,7.86275 -6.89115,8.91111 -19.84942,14.07807 -15.95445,6.3651 -39.02475,11.38229 -62.84407,13.62878 -15.50503,1.49768 -51.98306,1.04837 -64.79157,-0.74883 -16.77839,-2.47115 -29.512,-5.39161 -42.3954,-9.88461 -10.4865,-3.66928 -14.98072,-5.76602 -27.26489,-12.80506 -13.25794,-7.63811 -20.973,-11.45716 -28.08882,-14.07808 -6.8162,-2.47115 -13.1081,-2.77069 -15.9545,-0.8986 -2.2471,1.49766 -2.5467,0.74883 -0.8988,-2.47116 1.8726,-3.59439 6.0672,-5.99067 10.5614,-5.99067 5.0934,0 8.4641,1.27302 17.60232,6.66463 8.6139,5.09207 11.01082,5.54137 13.33283,2.62092 1.9475,-2.47116 1.9475,-3.1451 0.0749,-10.93299 -0.82393,-3.44463 -1.49807,-8.83623 -1.49807,-12.05622 l 0,-5.76603 12.5838,0 12.6587,0 2.02239,6.14045 z m 5.24325,-1.04838 c 4.41931,11.45716 13.10812,22.31527 22.32126,27.70687 12.6587,7.48834 30.03633,11.53205 53.93055,12.58041 35.65408,1.57255 69.81011,-10.48367 89.95916,-31.82545 2.99614,-3.1451 5.61776,-5.31672 6.51665,-5.31672 0.82388,0 1.49806,0.29953 1.49806,0.74884 0,1.34789 -15.35526,16.2497 -21.34754,20.66782 -18.42627,13.55389 -40.74753,19.24503 -76.0271,19.24503 -14.38148,0 -21.94674,-0.82371 -33.33208,-3.66929 -25.3174,-6.2902 -41.57147,-20.36828 -47.86336,-41.33563 l -1.12356,-3.89395 1.79769,0 c 1.49807,0 2.0224,0.82372 3.67027,5.09207 z m 157.59706,-1.04837 c 3.22085,1.64744 3.82009,2.24651 3.14595,3.07023 -0.67413,0.82372 -0.44942,1.04837 1.19846,1.27302 1.12355,0.14976 2.39691,0.82372 2.84633,1.49767 0.89885,1.49767 -1.19846,4.0437 -7.56525,8.91112 -4.56912,3.59441 -5.09345,3.44463 -10.33669,-2.47116 -2.77144,-3.21999 -7.86488,-11.90645 -7.86488,-13.55389 0,-0.82372 3.44557,-1.12325 8.98843,-0.97348 4.3444,0.14976 6.51661,0.67394 9.58765,2.24649 z m -249.42878,-0.89859 c 1.4231,1.42278 1.0486,3.44463 -0.5993,3.96882 -1.6478,0.52419 -3.7451,-0.67395 -3.7451,-2.17161 0,-1.12326 1.498,-2.69581 2.6216,-2.69581 0.4494,0 1.1985,0.37441 1.7228,0.8986 z m 221.78937,17.67248 -4.64402,15.72552 -2.84632,0.74883 c -1.64789,0.37442 -2.92125,0.52419 -2.92125,0.22466 0,-0.22466 2.0973,-7.11393 4.64402,-15.27623 4.56912,-14.52737 4.71893,-14.90179 7.34055,-16.24969 1.42317,-0.74883 2.69652,-1.27302 2.84633,-1.12325 0.14981,0.0749 -1.87258,7.26369 -4.41931,15.95016 z m 9.43785,-11.38228 c 1.12356,2.32139 4.1946,6.51486 6.81622,9.28555 l 4.79383,5.09206 -5.39305,3.14511 c -6.29191,3.81905 -16.62859,8.38694 -16.92821,7.56322 -0.0749,-0.29953 1.64788,-6.81438 3.9699,-14.52738 2.2471,-7.71299 4.11969,-14.15296 4.11969,-14.37761 0,-1.12325 0.74903,0.0749 2.62162,3.81905 z m -206.05962,6.88927 c 1.2733,0.37443 1.2733,0.44931 -0.3746,1.27303 -1.5729,0.89859 -2.7714,0.4493 -12.0594,-4.19347 -7.4155,-3.74418 -10.1869,-5.46649 -9.8873,-6.21533 0.2996,-0.82372 2.6965,0 10.6363,3.81905 5.6178,2.69581 10.861,5.09208 11.685,5.31672 z m 187.78315,7.63812 c -2.24711,7.41345 -4.4193,13.47901 -4.71892,13.47901 -0.89884,0 -1.57297,-5.16696 -1.04865,-8.83624 0.82394,-6.14044 2.69653,-10.48368 6.217,-14.37762 1.87258,-2.02185 3.44556,-3.74417 3.59537,-3.74417 0.0749,0 -1.72279,6.06555 -4.0448,13.47902 z m -82.61861,-11.08275 c -0.2247,0.52419 -1.79768,5.31672 -3.59537,10.70833 -1.72278,5.31672 -3.44555,10.03438 -3.74517,10.33391 -0.29961,0.37442 -1.9475,-0.0749 -3.59537,-0.8986 -2.54673,-1.3479 -3.07105,-2.02186 -3.89499,-5.24184 -0.74903,-3.21999 -0.67413,-3.96883 0.59923,-6.51486 2.0973,-4.0437 5.39305,-6.96415 9.21313,-8.1623 4.1946,-1.273 5.39307,-1.34789 5.01854,-0.22464 z m 6.74132,0.22464 c 0.14982,0.14978 -1.42316,5.61627 -3.59536,12.206 l -3.74518,12.05624 -2.24711,-0.74884 c -1.19846,-0.4493 -2.02239,-1.19813 -1.87258,-1.64743 0.1498,-0.52419 1.72277,-5.31672 3.44555,-10.63344 3.89499,-12.206 4.04479,-12.58042 6.1421,-11.90646 0.89884,0.22464 1.72278,0.59906 1.87258,0.67393 z m 7.78997,2.09675 c 0.29961,0.4493 0.59923,1.72231 0.59923,2.77068 0,2.99534 4.1197,13.85344 7.04094,18.79574 1.49806,2.54604 2.54671,4.79254 2.32201,5.01719 -0.44942,0.52418 -10.6363,-0.97349 -17.52744,-2.54604 -3.67027,-0.74884 -5.31815,-1.49767 -5.09344,-2.09673 0.22472,-0.52419 2.0224,-6.06556 3.96989,-12.35577 l 3.59537,-11.45716 2.2471,0.4493 c 1.27336,0.29953 2.54673,0.8986 2.84634,1.42279 z m 12.50889,3.89393 c 11.08573,4.71765 10.5614,4.11859 6.96603,8.23718 -3.22085,3.66928 -6.14209,8.91113 -6.14209,11.08275 0,2.47115 -1.42317,1.19813 -4.04479,-3.44464 -2.77143,-4.86742 -6.4417,-15.05156 -6.4417,-17.67249 0,-0.8986 0.37451,-1.57255 0.82393,-1.57255 0.44943,0 4.41932,1.49767 8.83862,3.36975 z m 18.72589,9.88462 c 3.14595,1.94697 8.3143,5.54136 11.61005,8.01252 l 5.84248,4.493 -2.0973,0.67396 c -2.54673,0.82371 -30.63555,1.12324 -31.38459,0.3744 -0.29961,-0.22464 0,-2.32137 0.67413,-4.64276 0.89885,-2.92045 2.32202,-5.31672 5.01854,-8.23717 2.09731,-2.32139 4.04479,-4.19348 4.2695,-4.19348 0.22471,0 2.92125,1.57255 6.06719,3.51953 z m -140.59391,2.17162 c 6.89108,2.47115 14.68105,6.36509 27.86407,13.92831 15.87955,9.13577 26.51585,13.47901 43.81858,17.82224 20.14905,5.01719 38.1259,6.96416 63.3684,6.96416 39.24946,0 71.08347,-5.91579 100.74524,-18.72085 0.59929,-0.29953 -0.0749,0.97349 -1.57297,2.84557 -1.57296,1.94697 -4.3444,4.11859 -6.74129,5.31673 -5.99228,2.99533 -19.17531,7.11392 -30.63555,9.58507 -8.91353,1.94697 -9.51276,2.17162 -4.86874,1.79721 9.81237,-0.74884 21.57223,-3.66929 33.70661,-8.16229 0.89883,-0.37442 0.2996,0.67394 -1.79769,2.84557 -2.84634,2.92044 -4.34441,3.74417 -10.4865,5.76601 -3.96989,1.27302 -13.93206,3.44464 -22.17145,4.79254 -8.23939,1.42278 -14.23168,2.62092 -13.40773,2.62092 3.59536,0.14977 24.56836,-3.07022 31.38458,-4.79253 4.04479,-1.04838 7.49036,-1.72233 7.64016,-1.57256 0.22471,0.14977 -1.57297,1.7972 -3.82008,3.66929 -4.34441,3.51952 -8.08959,4.79254 -20.37376,6.88927 -3.59538,0.59907 -4.86874,0.97348 -3.29576,1.04837 1.42317,0 5.69267,-0.59907 9.36295,-1.3479 3.74518,-0.74884 6.81622,-1.27302 6.96602,-1.19814 0.44943,0.37442 -9.58765,6.3651 -17.07801,10.10927 -9.06332,4.56788 -21.87183,8.986 -32.95756,11.38227 -11.53514,2.47115 -37.90119,2.47115 -49.43633,0 -23.36992,-5.09208 -52.05797,-19.24503 -67.78772,-33.47288 l -3.74517,-3.36975 4.86872,2.2465 c 5.46797,2.47115 15.87956,5.54137 20.973,6.29021 2.0973,0.29953 0.52432,-0.37442 -4.11969,-1.79721 -11.31044,-3.44464 -24.79308,-10.33391 -30.26104,-15.42598 -2.54672,-2.32139 -4.56911,-4.49301 -4.56911,-4.79254 0,-0.29953 3.82008,1.3479 8.4641,3.74417 10.48649,5.4665 20.29886,9.06089 33.18227,12.43065 12.20928,3.07021 16.32897,3.29487 5.91738,0.29953 -24.94288,-7.26368 -47.48885,-18.12179 -59.0989,-28.38081 -7.64013,-6.73951 -14.30653,-10.10926 -20.07413,-10.18415 -2.322,0 -4.0448,-0.22464 -3.8201,-0.59907 0.749,-1.27301 8.6139,-0.44929 13.8572,1.4228 z m 237.51905,23.66315 c -0.37449,0.52419 -2.02236,2.62092 -3.59532,4.71766 l -2.92124,3.74417 4.644,-4.41813 c 5.16839,-5.01719 6.81626,-5.16695 3.07103,-0.29953 l -2.47174,3.21999 3.37063,-3.07022 c 3.67022,-3.51952 5.91737,-3.74417 3.89501,-0.44931 -1.27337,2.02186 -1.27337,2.02186 0.2247,0.67396 0.82388,-0.67396 1.79766,-1.27302 2.09725,-1.27302 0.29959,0 2.39695,1.72232 4.644,3.81905 4.7939,4.64277 8.98851,12.35577 9.96219,18.4962 0.67418,4.34324 0.59929,5.99068 -0.74898,12.206 l -0.74909,3.36975 -24.71817,3.89394 c -18.12664,2.84558 -25.16757,3.66929 -26.14131,3.14511 -1.94749,-1.04837 -4.86873,-6.21532 -6.217,-11.00786 l -1.12355,-3.81906 6.81622,-5.01719 c 4.04479,-2.92045 11.75985,-9.95949 18.50118,-16.84876 10.78611,-11.08275 13.25795,-13.40413 11.46019,-11.08275 z"
         id="path6-98"
         style="fill:#000000;stroke:#000000;stroke-width:0.43398929;stroke-miterlimit:4;stroke-opacity:1;stroke-dasharray:none;display:inline" />
    </g>
  </g>
</svg>
