<svg xmlns="http://www.w3.org/2000/svg" xmlns:xlink="http://www.w3.org/1999/xlink" width="500" zoomAndPan="magnify" viewBox="0 0 375 374.999991" height="500" preserveAspectRatio="xMidYMid meet" version="1.0"><defs><g/></defs><g fill="#e7131a" fill-opacity="1"><g transform="translate(0.951473, 254.396898)"><g><path d="M 165.6875 -165.6875 L 165.6875 -169.734375 L 6.8125 -169.734375 L 6.8125 -165.6875 L 25.515625 -165.6875 L 84.359375 2.53125 L 87.640625 2.53125 L 115.171875 -76.03125 L 143.46875 2.53125 L 146.75 2.53125 L 205.84375 -165.6875 L 223.28125 -165.6875 L 223.28125 -169.734375 L 179.578125 -169.734375 L 179.578125 -165.6875 L 201.296875 -165.6875 L 154.578125 -33.09375 L 129.3125 -106.078125 L 150.28125 -165.6875 Z M 145.734375 -165.6875 L 127.046875 -112.65625 L 108.359375 -165.6875 Z M 95.734375 -33.59375 L 49.5 -165.6875 L 84.359375 -165.6875 L 112.90625 -82.84375 Z M 95.734375 -33.59375 "/></g></g></g><g fill="#e7131a" fill-opacity="1"><g transform="translate(228.004612, 254.396898)"><g><path d="M 54.5625 -87.390625 L 74.515625 -87.390625 C 78.210938 -87.390625 81.15625 -86.84375 83.34375 -85.75 C 85.539062 -84.65625 87.269531 -83.097656 88.53125 -81.078125 C 89.789062 -79.054688 90.753906 -76.613281 91.421875 -73.75 C 92.097656 -70.882812 92.773438 -67.6875 93.453125 -64.15625 C 93.960938 -61.800781 94.632812 -60.625 95.46875 -60.625 C 96.476562 -60.625 96.984375 -61.71875 96.984375 -63.90625 L 96.984375 -115.171875 C 96.984375 -117.191406 96.476562 -118.203125 95.46875 -118.203125 C 94.632812 -118.203125 93.960938 -117.023438 93.453125 -114.671875 C 92.773438 -111.128906 92.097656 -107.925781 91.421875 -105.0625 C 90.753906 -102.207031 89.789062 -99.769531 88.53125 -97.75 C 87.269531 -95.726562 85.539062 -94.171875 83.34375 -93.078125 C 81.15625 -91.984375 78.210938 -91.4375 74.515625 -91.4375 L 54.5625 -91.4375 L 54.5625 -165.6875 L 92.953125 -165.6875 C 98.671875 -165.6875 103.46875 -164.296875 107.34375 -161.515625 C 111.21875 -158.742188 114.332031 -155.296875 116.6875 -151.171875 C 119.050781 -147.046875 120.78125 -142.664062 121.875 -138.03125 C 122.96875 -133.40625 123.597656 -129.238281 123.765625 -125.53125 C 123.765625 -123.175781 124.4375 -122 125.78125 -122 C 126.957031 -122 127.546875 -123.09375 127.546875 -125.28125 L 127.546875 -163.671875 C 127.546875 -167.710938 125.441406 -169.734375 121.234375 -169.734375 L 8.328125 -169.734375 L 8.328125 -165.6875 L 30.0625 -165.6875 L 30.0625 -4.046875 L 8.59375 -4.046875 L 8.59375 0 L 127.296875 0 C 132.179688 0 134.625 -2.691406 134.625 -8.078125 L 134.625 -45.96875 C 134.625 -50.007812 133.953125 -52.03125 132.609375 -52.03125 C 131.421875 -52.03125 130.492188 -50.265625 129.828125 -46.734375 C 128.472656 -40.328125 127.039062 -34.515625 125.53125 -29.296875 C 124.019531 -24.078125 122 -19.570312 119.46875 -15.78125 C 116.945312 -12 113.75 -9.097656 109.875 -7.078125 C 106 -5.054688 101.113281 -4.046875 95.21875 -4.046875 L 54.5625 -4.046875 Z M 54.5625 -87.390625 "/></g></g></g></svg>