<svg xmlns="http://www.w3.org/2000/svg" version="1.1" xmlns:xlink="http://www.w3.org/1999/xlink" width="95.201" height="124.251"><svg width="95.201" height="124.251" viewBox="0 0 95.201 124.251" xmlns="http://www.w3.org/2000/svg">
                <g id="SvgjsG1001" stroke-linecap="round" fill-rule="evenodd" font-size="9pt" stroke="#e7131a" stroke-width="0.25mm" fill="#e7131a">
                  <path d="M 35.35 69.301 L 33.95 62.301 L 42.35 62.651 Q 55.475 62.651 66.5 58.451 Q 72.975 56.001 76.913 50.751 Q 80.85 45.501 80.85 37.801 Q 80.85 10.151 47.6 10.151 L 29.4 10.851 L 29.4 111.651 Q 29.4 114.101 29.75 115.501 Q 30.1 116.901 32.025 118.126 Q 33.95 119.351 37.8 119.351 L 44.45 119.351 L 44.45 124.251 L 0 124.251 L 0 119.351 L 5.6 119.351 Q 9.45 119.351 11.375 118.126 Q 13.3 116.901 13.65 115.501 Q 14 114.101 14 111.651 L 14 14.701 Q 14 10.676 12.338 8.839 Q 10.675 7.001 5.6 7.001 L 0 7.001 L 0 1.751 L 26.95 1.751 L 60.2 0.001 Q 75.95 0.001 85.575 6.826 Q 95.2 13.651 95.2 25.989 Q 95.2 38.326 89.513 47.514 Q 83.825 56.701 75.425 61.251 Q 59.5 69.651 46.9 69.651 Q 39.55 69.651 35.35 69.301 Z" vector-effect="non-scaling-stroke"></path>
                </g>
              </svg><style>@media (prefers-color-scheme: light) { :root { filter: none; } }
@media (prefers-color-scheme: dark) { :root { filter: none; } }
</style></svg>